<svg width="466" height="567" viewBox="0 0 466 567" fill="none" xmlns="http://www.w3.org/2000/svg">
<path d="M465.06 103.265C465.024 102.864 464.719 102.559 464.342 102.499C463.438 93.271 461.947 84.6945 459.852 76.8297C458.931 73.3728 457.901 70.0833 456.764 66.9493C456.877 66.8656 456.979 66.7639 457.045 66.6264C457.045 66.6204 457.051 66.6144 457.057 66.6084C457.249 66.1838 457.075 65.6814 456.65 65.4781C456.476 65.3943 456.297 65.3106 456.123 65.2269C450.257 49.91 441.751 38.6601 430.737 31.7044C426.331 28.9233 421.572 26.8838 416.49 25.58C416.49 25.1912 416.227 24.8384 415.832 24.7487C415.73 24.7247 415.628 24.7068 415.526 24.6829C413.707 23.7977 411.857 22.9245 410.025 22.0812C381.73 9.12077 351.764 1.69857 320.954 1.27057e-05C320.547 -0.0239106 320.188 0.245226 320.081 0.622018C305.505 -0.137546 290.821 0.400728 276.174 2.23684C260.838 -1.34567 242.347 2.80502 221.725 14.5394C219.738 15.2391 217.763 15.9688 215.793 16.7164C203.384 18.1398 191.281 20.7236 179.674 24.4257C179.435 24.4975 179.201 24.5752 178.968 24.653C178.8 24.7068 178.633 24.7546 178.465 24.8144C178.279 24.8743 178.1 24.94 177.914 24.9999C177.298 25.2032 176.681 25.4125 176.071 25.6219C175.789 25.7176 175.508 25.8132 175.233 25.9089C174.454 26.1781 173.676 26.4532 172.904 26.7343C172.808 26.7702 172.706 26.8061 172.611 26.8419C149.553 35.233 128.919 47.9662 111.117 64.8022C98.0677 72.8285 84.2881 85.5975 70.9634 101.841C66.2644 106.363 62.3197 111.536 59.177 117.296C56.8724 120.538 54.5918 123.875 52.3471 127.302L52.8918 127.655C52.7362 127.894 52.5805 128.127 52.4249 128.366C46.4569 137.535 40.8361 147.17 35.6523 157.074C34.1139 157.05 32.6772 157.338 32.1625 158.45C31.8213 159.198 31.8632 160.22 33.1382 161.961C26.6434 174.831 20.9029 188.091 16.1022 201.326C14.9229 203.025 13.8694 204.771 12.9595 206.566L13.4803 206.829C13.4145 207.026 13.3426 207.23 13.2768 207.427C11.5528 210.95 10.3736 214.652 9.73311 218.503C9.36797 219.723 9.00881 220.944 8.66163 222.152L9.28417 222.331C9.26022 222.696 9.23029 223.061 9.21234 223.432C8.92501 230.094 10.2 237.122 12.9595 244.406C11.481 248.419 10.1342 252.468 8.91304 256.535C8.52994 256.518 8.16479 256.763 8.05106 257.151C3.28026 273.318 0.598558 289.837 0.0837662 306.254C-0.425039 322.486 1.18518 338.712 4.87252 354.471C4.96231 354.866 5.3095 355.129 5.69859 355.135C10.3018 374.489 17.9099 392.898 28.4153 410.165C28.2417 410.35 28.1519 410.607 28.1938 410.877C32.1445 436.594 41.8956 454.794 56.5432 463.938C64.0915 476.319 72.6155 487.951 82.0374 498.735C81.8099 499.052 81.8039 499.488 82.0733 499.799C103.862 524.59 130.027 544.53 159.843 559.063C160.172 559.225 160.549 559.153 160.8 558.926C164.398 561.229 168.259 563.065 172.377 564.392C185.852 568.734 201.433 567.664 218.804 561.24C218.954 561.312 219.104 561.396 219.259 561.468C219.684 561.677 220.205 561.498 220.415 561.073C220.415 561.067 220.415 561.061 220.421 561.055C220.486 560.911 220.504 560.756 220.492 560.607C223.084 559.602 225.718 558.483 228.388 557.239C233.314 554.955 238.307 552.287 243.365 549.255C243.64 549.518 244.065 549.578 244.406 549.374C261.634 538.932 279.592 524.243 297.789 505.714C297.795 505.708 297.795 505.697 297.801 505.691C297.855 505.631 297.909 505.565 297.944 505.487C297.944 505.481 297.95 505.475 297.95 505.469C297.986 505.397 298.004 505.326 298.016 505.248C298.016 505.23 298.016 505.212 298.022 505.2C298.028 505.122 298.028 505.045 298.022 504.973C298.022 504.961 298.016 504.955 298.016 504.943C298.004 504.895 297.992 504.847 297.974 504.799C297.968 504.781 297.956 504.758 297.944 504.74C297.933 504.716 297.921 504.692 297.909 504.668C307.109 495.26 316.232 484.991 325.205 473.98C325.558 474.154 325.989 474.082 326.246 473.765C358.66 433.897 388.524 385.063 412.599 332.558C413.491 330.608 414.395 328.616 415.281 326.637C415.443 326.272 415.329 325.847 415.024 325.608C421.614 310.841 427.636 296.021 433.035 281.296C433.389 281.338 433.748 281.159 433.909 280.824C433.909 280.818 433.915 280.812 433.921 280.806C434.101 280.417 433.957 279.962 433.604 279.729C448.497 238.808 458.601 198.665 462.935 162.523C463.228 162.481 463.486 162.302 463.606 162.038C463.642 161.961 463.665 161.871 463.677 161.781C463.815 160.603 463.947 159.425 464.078 158.253C466.245 138.157 466.575 119.664 465.054 103.289L465.06 103.265ZM6.55457 354.077C2.90913 338.461 1.31089 322.39 1.8137 306.308C1.88554 304.071 1.99927 301.834 2.14892 299.591C4.64506 311.619 9.50565 320.345 16.4553 325.321C17.0539 356.475 22.5191 386.738 32.7311 415.368C32.8688 415.745 33.2399 415.966 33.623 415.936C34.0301 417.067 34.4491 418.197 34.8681 419.315C33.2399 416.947 31.6656 414.555 30.1512 412.138C30.0674 411.63 29.9836 411.122 29.8998 410.607C29.8279 410.135 29.385 409.812 28.9181 409.89C28.8702 409.896 28.8283 409.908 28.7804 409.926C18.299 392.701 10.7148 374.334 6.1176 355.034C6.28521 354.944 6.42288 354.8 6.5007 354.633C6.57852 354.465 6.60246 354.274 6.55457 354.077ZM51.515 148.007L52.1495 148.061C52.9517 138.534 55.1485 129.802 58.6742 122.11C59.2848 120.777 59.9432 119.473 60.6376 118.199C64.4387 112.858 68.3056 107.792 72.2084 103.026C73.3338 101.943 74.5011 100.896 75.7162 99.8977C79.5472 96.7338 83.8332 93.9528 88.5321 91.5724C88.2089 92.0269 87.8856 92.4815 87.5624 92.936C87.4307 93.1214 87.299 93.3008 87.1673 93.4863C86.7782 94.0425 86.3892 94.6107 86.0001 95.1729C85.8624 95.3762 85.7187 95.5736 85.5811 95.7769C85.2099 96.3212 84.8448 96.8654 84.4856 97.4157C84.336 97.6429 84.1803 97.8702 84.0307 98.0975C83.6775 98.6298 83.3363 99.1621 82.9891 99.7003C82.8275 99.9515 82.6659 100.197 82.5043 100.448C82.1631 100.986 81.8219 101.53 81.4807 102.069C81.325 102.32 81.1634 102.571 81.0078 102.822C80.6845 103.349 80.3613 103.875 80.0441 104.407C79.8764 104.682 79.7088 104.951 79.5412 105.227C79.218 105.765 78.9007 106.309 78.5775 106.853C78.4219 107.123 78.2602 107.386 78.1046 107.649C77.7993 108.175 77.5 108.707 77.1947 109.234C77.0271 109.527 76.8595 109.814 76.6979 110.107C76.4166 110.609 76.1352 111.118 75.8599 111.62C75.6803 111.943 75.5007 112.266 75.3211 112.589C75.0398 113.103 74.7644 113.624 74.4891 114.138C74.3155 114.461 74.1419 114.778 73.9743 115.101C73.7109 115.597 73.4535 116.1 73.1961 116.602C73.0165 116.949 72.837 117.29 72.6574 117.643C72.4299 118.091 72.2084 118.54 71.981 118.988C71.6039 118.911 71.2088 119.084 71.0352 119.449C70.0894 121.351 69.1616 123.301 68.2757 125.232C65.7795 130.675 63.4869 136.297 61.4038 142.057H61.3918C61.2721 142.379 61.1644 142.714 61.0447 143.043C60.8411 143.606 60.6436 144.174 60.4461 144.742C60.2186 145.394 59.9911 146.04 59.7696 146.692C59.4823 147.541 59.201 148.396 58.9256 149.257C58.6742 150.035 58.4228 150.812 58.1774 151.596C57.9439 152.338 57.7165 153.079 57.489 153.821C57.3274 154.359 57.1658 154.903 57.0041 155.442C56.7707 156.231 56.5432 157.027 56.3158 157.822C56.1781 158.3 56.0464 158.773 55.9087 159.251C55.5915 160.388 55.2862 161.53 54.9809 162.678C54.9749 162.708 54.9629 162.738 54.9569 162.774C53.67 162.32 52.4369 161.901 51.2576 161.512C51.0601 156.835 51.1439 152.332 51.509 148.007H51.515ZM73.4475 117.057C73.7827 116.405 74.1239 115.747 74.4651 115.101C74.5609 114.922 74.6567 114.742 74.7525 114.563C75.0997 113.905 75.4528 113.253 75.806 112.601C75.9018 112.428 75.9976 112.254 76.0933 112.081C76.4525 111.429 76.8116 110.777 77.1768 110.131C77.2726 109.963 77.3683 109.802 77.4581 109.634C77.8292 108.983 78.2004 108.331 78.5775 107.685C78.6673 107.529 78.7631 107.374 78.8528 107.212C79.2359 106.56 79.619 105.908 80.0081 105.262C80.1039 105.107 80.1997 104.951 80.2895 104.802C80.6786 104.156 81.0736 103.51 81.4687 102.87C81.5585 102.721 81.6543 102.577 81.7441 102.428C82.1451 101.782 82.5522 101.142 82.9592 100.508C83.055 100.364 83.1508 100.221 83.2405 100.071C83.6536 99.4372 84.0606 98.7972 84.4796 98.1692C84.5694 98.0317 84.6592 97.9001 84.749 97.7626C85.174 97.1286 85.599 96.4886 86.03 95.8606C86.1198 95.7291 86.2096 95.5975 86.2994 95.4659C86.7304 94.8319 87.1673 94.204 87.6043 93.582C87.6941 93.4504 87.7899 93.3248 87.8797 93.1992C88.3226 92.5772 88.7656 91.9492 89.2145 91.3332C89.2624 91.2674 89.3103 91.2016 89.3582 91.1358C93.2969 89.192 97.523 87.5294 102.006 86.1538L101.815 85.5258C106.52 84.0784 111.494 82.9481 116.726 82.1347C100.917 97.942 86.9219 115.478 74.8363 134.569C74.4771 134.461 74.0761 134.598 73.8606 134.933C68.0422 144.174 62.6429 153.839 57.7404 163.767C57.3513 163.623 56.9742 163.492 56.5911 163.354C56.6151 163.259 56.645 163.157 56.6689 163.061C56.9143 162.122 57.1658 161.183 57.4232 160.25C57.5309 159.855 57.6386 159.461 57.7464 159.066C58.0816 157.864 58.4288 156.668 58.782 155.472C58.9196 155.011 59.0633 154.55 59.201 154.096C59.4344 153.33 59.6679 152.565 59.9073 151.805C60.0929 151.225 60.2785 150.645 60.464 150.065C60.6735 149.413 60.895 148.761 61.1105 148.109C61.3799 147.302 61.6552 146.494 61.9306 145.693C62.2179 144.868 62.5052 144.048 62.7985 143.229C64.9235 137.302 67.27 131.536 69.832 125.95C70.712 124.03 71.6338 122.099 72.5676 120.215C72.7412 119.868 72.6454 119.437 72.3581 119.186C72.6155 118.666 72.8729 118.151 73.1363 117.637C73.232 117.445 73.3338 117.254 73.4296 117.063L73.4475 117.057ZM107.005 69.551L107.065 69.6108C107.005 69.6706 106.945 69.7304 106.885 69.7962C106.753 69.9338 106.616 70.0654 106.484 70.2029C105.975 70.7232 105.472 71.2496 104.97 71.7759C104.844 71.9074 104.718 72.039 104.592 72.1706C104.066 72.7268 103.545 73.283 103.024 73.8452C102.922 73.9529 102.821 74.0605 102.725 74.1682C102.21 74.7304 101.695 75.2986 101.186 75.8668C101.085 75.9804 100.983 76.088 100.887 76.1957C100.366 76.7818 99.8456 77.3679 99.3308 77.96C99.247 78.0557 99.1572 78.1514 99.0734 78.2531C98.5885 78.8153 98.1037 79.3775 97.6248 79.9457C97.511 80.0773 97.3973 80.2088 97.2836 80.3404C96.8227 80.8847 96.3737 81.4349 95.9188 81.9851C95.7871 82.1466 95.6554 82.3021 95.5237 82.4576C95.0568 83.0258 94.5959 83.6059 94.135 84.1801C94.0212 84.3236 93.9075 84.4612 93.7938 84.5988C93.3448 85.1609 92.9079 85.7291 92.4649 86.2973C92.3392 86.4588 92.2135 86.6143 92.0938 86.7758C91.6448 87.3559 91.2078 87.942 90.7649 88.5282C90.7469 88.5521 90.729 88.576 90.711 88.5999C86.3473 90.5915 82.3067 92.9061 78.6014 95.5257C88.0832 84.8619 97.6966 76.0522 107.005 69.551ZM175.813 27.5178C176.071 27.4281 176.328 27.3384 176.585 27.2546C177.214 27.0393 177.842 26.83 178.477 26.6207C178.806 26.513 179.135 26.4053 179.465 26.2977C189.066 23.1936 199.009 20.8611 209.191 19.3241C186.773 28.5285 165.547 40.7533 145.83 55.8131C139.778 54.4973 132.942 55.1492 125.43 57.7927C125.052 57.9243 124.825 58.2951 124.861 58.6779C121.916 59.7664 118.881 61.1539 115.75 62.8525C122.047 57.2006 128.686 52.0571 135.648 47.41C135.701 47.3861 135.755 47.3621 135.809 47.3263C147.428 39.599 159.986 33.2594 173.215 28.4388C173.287 28.4149 173.359 28.391 173.425 28.3611C174.221 28.074 175.017 27.7929 175.813 27.5118V27.5178ZM251.601 16.854C252.421 16.9018 253.241 16.9616 254.062 17.0155C254.295 17.0334 254.522 17.0454 254.756 17.0633C255.486 17.1171 256.216 17.1769 256.953 17.2427C257.276 17.2666 257.593 17.2906 257.916 17.3205C258.575 17.3803 259.233 17.4461 259.892 17.5119C260.287 17.5477 260.682 17.5836 261.077 17.6255C261.706 17.6913 262.334 17.7631 262.963 17.8348C263.388 17.8827 263.813 17.9245 264.238 17.9724C264.507 18.0023 264.776 18.0382 265.046 18.0741L264.968 18.72C278.568 20.3707 292.264 23.3073 305.954 27.4699C307.672 30.562 309.216 33.8933 310.581 37.4758C295.556 38.2055 280.507 39.9758 265.495 42.7749C265.327 42.434 264.956 42.2306 264.561 42.3024C232.285 48.3729 201.038 58.9649 171.695 73.7914C171.342 73.9708 171.168 74.3536 171.24 74.7244C169.953 75.3763 168.672 76.0402 167.397 76.71C165.924 72.8225 164.105 69.4194 161.956 66.5247C180.734 45.6397 199.404 29.4316 217.559 18.2535C220.869 17.9006 224.198 17.6255 227.55 17.4401C227.879 17.4221 228.154 17.2188 228.286 16.9377C228.316 16.8779 228.334 16.8121 228.346 16.7463C233.937 16.4652 239.593 16.4054 245.322 16.5789C247.279 16.6387 249.237 16.7284 251.2 16.842C251.338 16.848 251.476 16.854 251.613 16.8659L251.601 16.854ZM101.51 84.5031C98.0258 85.5736 94.6976 86.8176 91.5251 88.2231C91.8603 87.7865 92.1895 87.3439 92.5248 86.9073C92.6205 86.7818 92.7223 86.6562 92.8181 86.5365C93.285 85.9385 93.7519 85.3404 94.2188 84.7423C94.3145 84.6227 94.4163 84.5031 94.5121 84.3775C94.985 83.7854 95.4639 83.1933 95.9427 82.6012C96.0385 82.4815 96.1343 82.3679 96.236 82.2483C96.7209 81.6622 97.2058 81.076 97.6966 80.4959C97.7984 80.3763 97.9001 80.2567 98.0019 80.1371C98.4927 79.5629 98.9836 78.9828 99.4744 78.4146C99.5762 78.3009 99.678 78.1873 99.7797 78.0677C100.277 77.4995 100.779 76.9313 101.282 76.3632C101.39 76.2435 101.498 76.1299 101.599 76.0103C102.102 75.4541 102.605 74.8979 103.114 74.3416C103.222 74.228 103.329 74.1144 103.437 73.9948C103.946 73.4445 104.461 72.9003 104.976 72.356C105.095 72.2304 105.215 72.1108 105.335 71.9852C105.843 71.4529 106.352 70.9266 106.867 70.4003C106.987 70.2747 107.113 70.1551 107.238 70.0295C107.286 69.9816 107.328 69.9398 107.376 69.8919L107.855 70.3644C109.98 68.2113 112.153 66.13 114.361 64.1025C118.031 62.0092 121.587 60.3346 125.005 59.0726C125.22 59.3896 125.627 59.5391 126.004 59.4075C132.595 57.093 138.617 56.3633 143.986 57.2126C142.19 58.6061 140.406 60.0236 138.635 61.4649C138.323 61.7161 138.251 62.1408 138.413 62.4877C132.978 66.9434 127.686 71.5965 122.562 76.4529C120.766 78.1514 118.995 79.8739 117.247 81.6203C111.788 82.4397 106.604 83.6059 101.707 85.1071L101.522 84.5031H101.51ZM171.42 75.1072C171.671 75.4062 172.102 75.5079 172.467 75.3225C201.667 60.5738 232.758 50.0296 264.878 43.989C265.165 43.9351 265.387 43.7438 265.501 43.4985C265.543 43.4028 265.566 43.2952 265.573 43.1875C280.609 40.3885 295.682 38.6182 310.73 37.8945C313.67 45.7174 315.771 54.6707 317.01 64.6527C308.121 72.2244 299.172 80.7531 290.247 90.125L289.75 89.6585C282.752 97.009 275.802 104.856 268.925 113.157C267.111 113.139 265.303 113.127 263.495 113.127C261.418 112.14 259.341 111.166 257.282 110.227C232.805 99.0245 209.203 90.7411 187.133 85.6215L186.977 86.2794C180.955 84.8799 175.065 83.7196 169.324 82.7985C168.804 80.8069 168.205 78.917 167.541 77.1227C168.828 76.4469 170.127 75.777 171.42 75.1191V75.1072ZM301.003 114.569C300.608 114.539 300.255 114.784 300.129 115.137C291.516 114.485 282.89 114.066 274.27 113.881C274.18 113.504 273.851 113.223 273.45 113.217C272.678 113.199 271.912 113.199 271.139 113.187C277.706 105.31 284.332 97.8523 291.001 90.8487L290.558 90.4301C299.399 81.1418 308.264 72.6969 317.07 65.179C318.865 79.9995 318.788 97.0688 316.788 116.064C311.545 115.484 306.277 114.987 301.003 114.581V114.569ZM171.15 123.271C172.802 107.547 172.174 94.0066 169.432 83.2351C175.107 84.1502 180.931 85.2985 186.881 86.6861L186.744 87.2901C208.7 92.3858 232.189 100.627 256.564 111.788C257.527 112.23 258.497 112.685 259.467 113.139C230.513 113.378 202.373 116.237 175.646 121.674C175.257 121.752 174.987 122.087 174.963 122.463C173.688 122.727 172.425 123.002 171.156 123.277L171.15 123.271ZM167.481 82.4995C164.811 82.0928 162.171 81.7339 159.567 81.4349C161.71 80.2387 163.859 79.0665 166.026 77.9122C166.559 79.3715 167.044 80.9026 167.481 82.4995ZM160.872 65.1431C158.131 61.8298 154.904 59.2879 151.211 57.5953C150.151 57.1109 149.056 56.7042 147.937 56.3633C167.535 41.5368 188.623 29.5214 210.873 20.4903C194.477 31.4711 177.711 46.4411 160.872 65.1372V65.1431ZM138.676 62.8226C138.982 63.0439 139.407 63.0558 139.712 62.8046C141.861 61.0582 144.034 59.3537 146.219 57.6731C147.697 58.0439 149.122 58.5343 150.493 59.1623C154.018 60.7771 157.101 63.2293 159.717 66.435C157.442 68.9828 155.162 71.5964 152.887 74.2818L153.396 74.7125C151.792 76.5964 150.199 78.5222 148.601 80.472C137.671 79.8141 127.417 80.161 117.959 81.5246C119.575 79.9218 121.203 78.3368 122.856 76.7758C127.968 71.9314 133.253 67.2783 138.682 62.8286L138.676 62.8226ZM153.719 74.9876L154.198 75.3943C156.395 72.8046 158.592 70.2807 160.783 67.8225C162.788 70.5737 164.494 73.8093 165.877 77.5055C163.512 78.7615 161.16 80.0414 158.825 81.3571C155.533 80.9863 152.3 80.7052 149.122 80.5079C150.648 78.6478 152.181 76.7998 153.713 74.9936L153.719 74.9876ZM158.191 81.71C151.618 85.4181 145.177 89.3475 138.862 93.4803C142.154 89.1621 145.47 84.9696 148.799 80.9026C151.875 81.094 155.006 81.3571 158.191 81.71ZM158.933 81.7878C161.782 82.1107 164.673 82.4995 167.606 82.9481C170.468 93.7195 171.126 107.487 169.39 123.6C169.39 123.618 169.39 123.636 169.39 123.654C158.191 126.136 147.302 129.066 136.767 132.463C135.019 133.025 133.295 133.606 131.577 134.192C131.368 133.869 130.961 133.713 130.577 133.845C121.593 136.931 112.997 140.34 104.778 144.03C108.579 137.679 112.476 131.429 116.463 125.304C123.502 114.491 130.727 104.204 138.072 94.5209C144.878 90.0293 151.833 85.783 158.939 81.7878H158.933ZM154.108 185.471C152.109 190.92 149.948 196.386 147.637 201.835C141.502 198.964 135.546 196.207 129.787 193.569C125.968 191.823 122.179 190.1 118.534 188.456L118.27 189.048C108.819 184.79 99.9952 180.908 91.8723 177.439C96.236 177.744 100.755 178.139 105.436 178.635C105.814 178.677 106.161 178.468 106.31 178.139C106.31 178.127 106.316 178.109 106.322 178.097C121.06 179.688 137.102 182.176 154.114 185.471H154.108ZM54.1429 191.823C54.1309 191.65 54.1129 191.47 54.101 191.297C53.9872 189.891 53.8914 188.492 53.8076 187.098C53.7897 186.811 53.7717 186.524 53.7598 186.243C53.634 183.964 53.5562 181.697 53.5143 179.449C58.7101 186.315 65.2588 193.797 73.0704 201.811C72.819 202.361 72.5556 202.905 72.3042 203.456C69.5627 209.442 66.881 215.537 64.3429 221.572L64.9654 221.835C63.6306 225.011 62.3256 228.186 61.0506 231.368C57.5189 217.81 55.2143 204.598 54.1488 191.829L54.1429 191.823ZM55.4059 175.639C55.9566 175.202 56.5013 174.76 57.058 174.323C57.6626 173.851 58.2791 173.39 58.8897 172.924C59.5422 172.427 60.1887 171.931 60.8531 171.44C61.5954 170.89 62.3436 170.346 63.0978 169.802C63.6306 169.419 64.1693 169.03 64.7081 168.647C65.2707 168.253 65.8394 167.858 66.4081 167.463C70.0655 168.881 74.118 170.495 78.6134 172.337C80.9419 173.294 83.3483 174.293 85.8265 175.334C74.4592 174.748 64.2831 174.843 55.4119 175.633L55.4059 175.639ZM54.1967 177.487C63.1637 176.608 73.5313 176.458 85.186 177.038C81.2532 184.658 77.4641 192.367 73.8426 200.148C65.9352 192.002 59.3566 184.425 54.1967 177.493V177.487ZM78.775 171.949C74.5011 170.196 70.5204 168.605 66.8391 167.176C66.9887 167.074 67.1324 166.973 67.276 166.871C67.725 166.566 68.1739 166.261 68.6229 165.956C69.5627 165.322 70.5144 164.688 71.4662 164.066C71.8373 163.821 72.2144 163.581 72.5915 163.342C73.6271 162.678 74.6627 162.015 75.7102 161.363C75.9796 161.195 76.2609 161.028 76.5303 160.86C79.0504 159.305 81.6184 157.786 84.2402 156.309C84.2522 156.309 84.2582 156.297 84.2641 156.291C89.7892 153.175 95.5536 150.22 101.522 147.421C96.2181 156.44 91.1001 165.669 86.2156 175.047C83.6596 173.97 81.1694 172.936 78.769 171.955L78.775 171.949ZM62.8404 167.87C62.1042 168.396 61.3679 168.916 60.6436 169.449C60.0989 169.849 59.5661 170.256 59.0274 170.663C58.3091 171.201 57.5908 171.739 56.8784 172.284C58.4887 170.077 60.1348 167.888 61.8168 165.717C62.6668 166.034 63.5468 166.369 64.4507 166.715C63.9059 167.098 63.3792 167.487 62.8464 167.87H62.8404ZM87.7599 213.773C83.2405 209.544 79.0324 205.435 75.1296 201.458C78.9367 193.264 82.9233 185.142 87.0775 177.128C88.2209 177.194 89.3821 177.26 90.5494 177.337C98.9836 180.932 108.19 184.975 118.085 189.437L117.821 190.023C121.467 191.667 125.25 193.384 129.069 195.13C134.839 197.774 140.813 200.537 146.967 203.414C145.854 206.003 144.704 208.593 143.525 211.165C137.88 223.479 131.607 235.363 124.891 246.553C111.219 235.579 98.804 224.921 87.9395 214.789C87.9455 214.777 87.9575 214.765 87.9635 214.753C88.1131 214.424 88.0473 214.024 87.7719 213.767L87.7599 213.773ZM116.097 125.059C111.997 131.357 107.992 137.786 104.096 144.323C103.814 144.449 103.533 144.568 103.252 144.7L103.15 144.64C103.12 144.688 103.096 144.736 103.066 144.784C95.0987 148.426 87.5205 152.367 80.3254 156.566C79.9363 156.793 79.5472 157.015 79.1641 157.242C78.2064 157.81 77.2606 158.384 76.3148 158.958C75.8599 159.233 75.4049 159.515 74.956 159.796C74.0401 160.364 73.1303 160.938 72.2264 161.512C71.7655 161.805 71.3106 162.104 70.8556 162.397C69.9637 162.977 69.0718 163.558 68.1979 164.144C67.7489 164.443 67.3119 164.748 66.869 165.053C66.2045 165.507 65.5341 165.95 64.8816 166.41C63.9359 166.046 63.0021 165.693 62.0922 165.352C71.3704 153.39 81.6363 142.015 92.7283 131.411C92.8121 131.333 92.8719 131.243 92.9138 131.148C93.0276 130.902 93.0156 130.615 92.8779 130.376C105.562 118.313 119.366 107.182 134.235 97.0688C135.151 96.4468 136.073 95.8307 136.994 95.2147C129.895 104.623 122.909 114.593 116.097 125.053V125.059ZM57.046 169.15C57.7464 167.672 58.4587 166.201 59.183 164.736C59.4943 164.849 59.8056 164.963 60.1228 165.083C59.0813 166.428 58.0577 167.786 57.046 169.15ZM76.9433 276.822C74.106 270.315 71.526 263.862 69.1975 257.462C69.1975 257.451 69.1975 257.439 69.1855 257.427C66.0728 248.85 63.4211 240.381 61.2242 232.044C62.5651 228.689 63.9418 225.334 65.3485 221.984L65.9232 222.223C68.4553 216.207 71.125 210.13 73.8606 204.161C74.0222 203.809 74.1898 203.462 74.3514 203.115C78.1465 206.966 82.2169 210.938 86.5807 215.017C86.874 215.292 87.311 215.304 87.6342 215.094C98.5227 225.244 110.961 235.92 124.657 246.918C112.877 266.505 99.7318 283.946 86.1737 297.821C82.7677 291.164 79.6011 284.496 76.68 277.821C76.7877 277.737 76.8775 277.636 76.9314 277.516C77.0271 277.301 77.0391 277.05 76.9373 276.81L76.9433 276.822ZM86.018 299.526C86.2036 299.633 86.4191 299.663 86.6286 299.621C92.0998 310.201 98.1575 320.752 104.808 331.236C93.5304 324.525 83.1567 317.725 73.7169 310.859C77.7634 307.498 81.8698 303.718 86.024 299.526H86.018ZM166.05 147.427C165.673 147.445 165.338 147.708 165.254 148.097C162.584 159.981 158.855 172.469 154.258 185.059C137.216 181.757 121.144 179.257 106.376 177.666C106.328 177.278 106.017 176.961 105.616 176.919C99.4505 176.267 93.5603 175.782 87.9455 175.453C93.1473 165.483 98.6065 155.687 104.275 146.129C112.805 142.248 121.76 138.689 131.134 135.466C131.368 135.388 131.541 135.214 131.637 135.011C131.697 134.886 131.721 134.742 131.709 134.598C133.427 134.012 135.151 133.432 136.899 132.87C147.422 129.479 158.298 126.548 169.48 124.072C169.576 124.264 169.737 124.407 169.941 124.485C169.115 131.835 167.81 139.521 166.05 147.433V147.427ZM267.404 114.987C267.296 114.933 267.195 114.886 267.087 114.832C267.231 114.832 267.38 114.832 267.524 114.838C267.482 114.886 267.446 114.933 267.404 114.981V114.987ZM117.45 82.0091C126.95 80.5916 137.264 80.2148 148.272 80.8607C144.752 85.1669 141.25 89.6047 137.773 94.192C136.509 95.0233 135.252 95.8666 134.001 96.7159C119.108 106.841 105.287 117.996 92.5786 130.077C92.2554 129.874 91.8304 129.898 91.5371 130.173C80.2536 140.962 69.8201 152.541 60.4042 164.724C60.057 164.598 59.7158 164.467 59.3746 164.347C64.2292 154.533 69.5746 144.975 75.3271 135.836C75.3451 135.801 75.363 135.771 75.381 135.735C75.5306 135.412 75.4528 135.041 75.2074 134.784C87.3828 115.55 101.498 97.9061 117.45 82.0091ZM55.1724 169.09C55.2503 168.767 55.3161 168.444 55.3939 168.127C55.4059 168.073 55.4238 168.013 55.4358 167.959C55.7351 166.715 56.0464 165.471 56.3636 164.239C56.4055 164.078 56.4474 163.922 56.4893 163.761C56.8425 163.887 57.1957 164.012 57.5548 164.144C56.7467 165.788 55.9506 167.439 55.1724 169.096V169.09ZM75.363 277.51C75.5247 277.881 75.9137 278.078 76.2968 278.013C79.2419 284.735 82.4324 291.452 85.8624 298.156C85.8504 298.168 85.8385 298.18 85.8265 298.198C85.5511 298.479 85.5212 298.904 85.7127 299.227C81.5465 303.437 77.4222 307.235 73.3577 310.602C61.7869 302.163 51.6347 293.634 42.9791 285.064C47.7618 268.431 53.5323 251.565 60.1527 234.759C63.9538 248.701 69.0299 262.977 75.363 277.516V277.51ZM105.628 331.726C98.804 321.021 92.5966 310.243 87.0057 299.43C87.0177 299.418 87.0356 299.412 87.0536 299.4C100.785 285.423 114.092 267.803 126.016 248.013C139.413 258.724 153.982 269.723 169.45 280.824C165.35 290.644 161.483 300.5 157.909 310.303L158.538 310.53C153.3 324.866 148.619 339.19 144.567 353.359C131.93 347.193 119.976 340.823 108.789 334.31L109.106 333.766C107.939 333.084 106.783 332.408 105.634 331.726H105.628ZM192.358 231.32C187.839 240.19 183.445 249.269 179.303 258.312C175.945 265.638 172.718 273.019 169.624 280.423C154.174 269.334 139.622 258.342 126.244 247.648C133.038 236.338 139.383 224.335 145.087 211.889C146.267 209.317 147.41 206.733 148.523 204.149C163.231 211.039 178.968 218.563 195.525 226.637C194.663 228.3 193.807 229.963 192.957 231.631L192.358 231.326V231.32ZM196.315 225.1C179.71 217.008 163.937 209.46 149.188 202.553C151.558 196.972 153.767 191.374 155.808 185.794C173.293 189.221 191.784 193.498 210.909 198.51C205.869 207.236 200.996 216.111 196.309 225.1H196.315ZM155.964 185.394C160.543 172.816 164.26 160.352 166.93 148.474C167.02 148.079 166.816 147.684 166.469 147.517C168.229 139.586 169.534 131.889 170.36 124.527C170.653 124.485 170.905 124.305 171.024 124.042C171.06 123.959 171.09 123.869 171.096 123.773C171.096 123.755 171.096 123.731 171.096 123.713C172.407 123.432 173.712 123.145 175.029 122.87C175.197 123.217 175.58 123.426 175.975 123.349C203.708 117.703 232.967 114.856 263.082 114.832C264.142 115.334 265.201 115.843 266.261 116.357C255.995 128.953 245.897 142.553 236.062 157.062L236.601 157.427C234.356 160.735 232.129 164.084 229.914 167.481C223.431 177.439 217.164 187.678 211.124 198.127C191.969 193.103 173.461 188.827 155.946 185.388L155.964 185.394ZM308.3 28.1936C313.849 29.94 319.392 31.8898 324.923 34.0429C325.546 34.2821 326.162 34.5213 326.785 34.7725C327.659 35.1194 328.539 35.4783 329.413 35.8371C330.047 36.0943 330.676 36.3515 331.31 36.6146C331.729 36.7881 332.148 36.9735 332.567 37.1529C325.851 37.0273 319.117 37.111 312.377 37.4041C311.155 34.1445 309.797 31.0764 308.294 28.1996L308.3 28.1936ZM42.0393 236.577C42.3266 236.53 42.566 236.35 42.6857 236.093C42.7277 236.003 42.7516 235.908 42.7636 235.806C44.2421 217.714 47.3069 199.879 51.8742 182.702C51.9161 183.827 51.97 184.951 52.0298 186.081C52.0418 186.339 52.0597 186.596 52.0717 186.853C52.1555 188.306 52.2513 189.76 52.371 191.225C52.371 191.291 52.383 191.362 52.389 191.428C52.5147 193.001 52.6583 194.574 52.8259 196.159C52.8259 196.177 52.8259 196.195 52.8259 196.213C52.9936 197.846 53.1851 199.484 53.3946 201.129C53.3946 201.141 53.3946 201.153 53.3946 201.165C54.7534 211.895 56.9443 222.881 59.9672 234.083C53.2809 251.009 47.4566 267.995 42.6319 284.747C42.3625 284.478 42.0931 284.215 41.8298 283.946C40.7403 267.953 40.8122 252.146 42.0393 236.589V236.577ZM71.981 311.744C64.9834 317.396 58.1654 321.78 51.5928 324.836C50.1921 325.488 48.8213 326.068 47.4625 326.589C45.0382 314.274 43.2963 301.846 42.2368 289.352C42.159 288.419 42.0872 287.486 42.0153 286.559C50.5872 295.01 60.5957 303.431 71.975 311.75L71.981 311.744ZM108.244 335.273L108.579 334.699C119.845 341.254 131.888 347.671 144.614 353.873L144.848 353.987L144.92 353.742C148.99 339.501 153.689 325.106 158.951 310.698L159.537 310.913C163.057 301.26 166.864 291.553 170.899 281.876C187.618 293.838 205.36 305.901 223.791 317.821C223.653 318.192 223.791 318.616 224.132 318.838C229.304 322.181 234.511 325.488 239.737 328.772C219.612 362.115 197.183 391.84 174.191 415.368C173.964 415.141 173.736 414.914 173.503 414.686C172.898 414.082 172.293 413.478 171.689 412.874C170.845 412.025 170.001 411.17 169.163 410.314C168.714 409.86 168.271 409.399 167.822 408.945C166.876 407.976 165.936 407.001 164.997 406.02C164.679 405.685 164.362 405.356 164.045 405.021C163.015 403.939 161.992 402.856 160.968 401.768C148.763 388.712 137.294 375.069 126.675 360.943C126.435 360.626 126.016 360.524 125.669 360.662C125.424 360.333 125.172 360.004 124.927 359.675C118.833 351.493 113.104 343.251 107.723 334.962C107.897 335.064 108.076 335.165 108.25 335.273H108.244ZM270.056 273.485C269.679 273.419 269.296 273.599 269.122 273.958C260.371 292.432 250.793 310.321 240.611 327.295C235.403 324.017 230.214 320.722 225.06 317.39C224.73 317.175 224.311 317.223 224.03 317.468C205.575 305.524 187.803 293.443 171.066 281.47C174.203 273.964 177.471 266.476 180.877 259.047C185.014 250.028 189.395 240.973 193.903 232.122L193.346 231.841C199.075 220.591 205.084 209.502 211.358 198.647C231.147 203.844 251.613 209.831 272.367 216.506C272.355 216.877 272.588 217.229 272.959 217.349C278.993 219.293 285.033 221.296 291.073 223.348C284.955 240.016 277.922 256.829 270.056 273.491V273.485ZM273.492 215.71C273.097 215.585 272.684 215.752 272.486 216.093C251.775 209.43 231.345 203.456 211.585 198.264C217.601 187.858 223.85 177.654 230.303 167.738C232.512 164.341 234.745 160.992 236.984 157.69L237.516 158.049C247.998 142.589 258.778 128.157 269.739 114.892C270.966 114.91 272.193 114.916 273.426 114.945C273.779 114.951 274.09 114.748 274.228 114.443C274.246 114.401 274.258 114.359 274.27 114.317C282.884 114.509 291.498 114.922 300.105 115.573C300.171 115.956 300.483 116.261 300.884 116.291C306.361 116.716 311.82 117.236 317.255 117.846C313.723 149.73 304.888 185.364 291.665 221.727C285.607 219.67 279.544 217.66 273.492 215.71ZM312.544 37.8287C319.584 37.5297 326.617 37.4519 333.639 37.6074C333.782 37.6672 333.932 37.733 334.076 37.7928C334.644 38.038 335.219 38.2773 335.788 38.5285C337.212 39.1505 338.637 39.7904 340.056 40.4364C340.11 40.4603 340.169 40.4842 340.223 40.5141C342.139 41.3933 344.078 42.3084 346 43.2414C336.997 48.8454 327.826 55.5858 318.578 63.3489C317.333 53.8932 315.316 45.3586 312.544 37.8287ZM347.047 41.8239C346.335 41.477 345.623 41.1421 344.91 40.8012C344.653 40.6756 344.395 40.55 344.138 40.4304C343.073 39.928 342.007 39.4316 340.948 38.9471C340.05 38.5345 339.152 38.1397 338.254 37.739C341.822 37.8706 345.383 38.056 348.939 38.3072C350.16 38.3909 351.375 38.4866 352.59 38.5823C350.753 39.617 348.909 40.6935 347.053 41.8299L347.047 41.8239ZM302.787 22.3324C303.446 23.2893 304.074 24.2822 304.691 25.2989C291.498 21.3874 278.293 18.6064 265.177 17.0155L265.1 17.6494C264.836 17.6195 264.579 17.5836 264.315 17.5537C263.825 17.4939 263.334 17.4461 262.843 17.3922C262.274 17.3324 261.712 17.2666 261.143 17.2068C260.586 17.147 260.035 17.0992 259.485 17.0454C258.982 16.9975 258.479 16.9437 257.976 16.9018C257.468 16.86 256.965 16.8181 256.456 16.7762C255.905 16.7344 255.354 16.6805 254.81 16.6446C254.463 16.6207 254.115 16.5968 253.768 16.5729C253.062 16.525 252.356 16.4712 251.649 16.4293C251.14 16.3994 250.626 16.3755 250.117 16.3516C249.572 16.3217 249.033 16.2918 248.489 16.2679C247.435 16.22 246.382 16.1781 245.334 16.1482C239.593 15.9748 233.919 16.0346 228.316 16.3157C228.196 15.9509 227.849 15.6997 227.454 15.7236C225.832 15.8133 224.216 15.9269 222.605 16.0585C223.288 15.8193 223.97 15.5621 224.653 15.3289C224.886 15.2511 225.06 15.0777 225.155 14.8743C225.215 14.7427 225.239 14.5992 225.227 14.4497C242.012 8.74398 259.06 4.82056 276.15 2.67344C280.837 3.77391 285.23 5.60404 289.289 8.16384C294.461 11.4294 298.986 15.8073 302.853 21.2618C302.596 21.5489 302.554 21.9855 302.781 22.3204L302.787 22.3324ZM54.8552 163.199C54.526 164.461 54.2087 165.735 53.9034 167.009C53.8076 167.391 53.7178 167.774 53.6281 168.157C53.4006 169.12 53.1731 170.083 52.9576 171.052C52.8619 171.476 52.7661 171.901 52.6703 172.325C52.5686 172.786 52.4668 173.247 52.365 173.707C51.8143 169.688 51.4612 165.782 51.2876 161.979C52.4069 162.349 53.5921 162.756 54.8552 163.199ZM52.1136 174.927C52.0837 175.065 52.0538 175.196 52.0298 175.334C39.6748 166.668 35.5924 162.529 34.2875 160.639C34.5987 160.023 34.916 159.413 35.2332 158.797C35.8378 158.785 36.6759 158.833 37.8431 159.012L37.9449 158.366C40.6206 158.779 44.697 159.802 50.8566 161.835C51.0481 166.064 51.4671 170.436 52.1196 174.933L52.1136 174.927ZM33.7188 159.168C33.7188 159.168 33.8744 158.922 34.7304 158.833C34.491 159.293 34.2575 159.754 34.0181 160.22C33.623 159.533 33.6829 159.245 33.7188 159.174V159.168ZM45.1041 190.214C40.3033 200.681 36.0354 211.476 32.4139 222.301C32.2882 222.672 32.4378 223.067 32.7431 223.282C28.529 235.979 25.1589 248.862 22.6268 261.888C18.6582 255.937 15.5814 250.1 13.4145 244.418C15.2881 239.329 17.3592 234.287 19.6518 229.299C27.3318 212.558 37.3223 196.38 49.5397 180.932C48.0073 184.012 46.5227 187.116 45.0981 190.214H45.1041ZM33.1561 223.414C33.5153 223.444 33.8625 223.264 34.0181 222.929C34.0301 222.899 34.042 222.869 34.054 222.839C37.6516 212.074 41.9016 201.338 46.6724 190.926C47.5882 188.922 48.54 186.919 49.5037 184.921C45.2956 201.374 42.4463 218.402 41.0396 235.662C41.0097 236.057 41.2491 236.41 41.6023 236.536C40.3871 251.954 40.3033 267.618 41.3569 283.461C41.0576 283.162 40.7583 282.857 40.465 282.558L40.004 283.007C33.21 276.039 27.5174 269.143 22.9621 262.391C25.4941 249.233 28.8881 236.231 33.1442 223.414H33.1561ZM39.7048 283.306L39.2378 283.76C39.9921 284.532 40.7643 285.309 41.5424 286.081C41.6262 287.181 41.71 288.276 41.8058 289.376C42.8653 301.912 44.6192 314.376 47.0495 326.726C38.2442 330.034 30.3547 330.614 23.5547 328.425C21.6571 327.815 19.8733 326.984 18.1913 325.955C18.1434 323.604 18.1134 321.248 18.1194 318.886C18.1194 318.491 17.8501 318.156 17.4849 318.054C17.5268 310.375 17.856 302.678 18.4906 294.992C19.3825 284.239 20.843 273.563 22.8603 262.983C27.3857 269.645 33.0125 276.44 39.7048 283.306ZM50.252 440.715C59.2608 450.87 69.3053 460.302 80.3134 468.962C73.7409 468.849 67.6651 467.527 62.1521 465.003C59.7457 463.903 57.4651 462.569 55.2922 461.02C48.0671 448.837 41.7819 435.948 36.5142 422.438C39.5312 426.666 42.7217 430.823 46.1037 434.896C47.4386 436.504 48.8034 438.101 50.1861 439.674C49.9766 439.991 49.9826 440.416 50.246 440.715H50.252ZM54.4182 460.38C42.3685 451.313 34.1259 435.242 30.3248 413.239C31.9829 415.853 33.7068 418.436 35.4966 420.99C40.7762 434.788 47.1094 447.946 54.4182 460.38ZM93.255 468.436C93.0994 468.077 92.7163 467.856 92.3093 467.934C89.1427 468.508 86.0719 468.837 83.0909 468.938C71.4961 459.979 60.9429 450.177 51.539 439.579C51.2756 439.279 50.8566 439.226 50.5154 439.393C49.1326 437.82 47.7738 436.229 46.4389 434.626C42.6917 430.111 39.172 425.5 35.8797 420.793C35.2452 419.13 34.6227 417.461 34.0181 415.781C34.1498 415.691 34.2575 415.583 34.3234 415.446C34.4132 415.249 34.4311 415.015 34.3533 414.8C24.3328 386.708 18.9215 357.031 18.2152 326.481C19.8494 327.462 21.5913 328.251 23.429 328.844C30.3068 331.057 38.2621 330.488 47.1393 327.169C47.4865 328.933 47.8516 330.698 48.2287 332.456C47.8935 332.629 47.702 333.012 47.7858 333.395C54.7474 365.434 66.1507 396.373 81.6782 425.356C81.8638 425.709 82.2648 425.87 82.636 425.787C89.9089 439.315 98.0199 452.234 106.903 464.501C102.198 466.271 97.6487 467.587 93.261 468.442L93.255 468.436ZM83.0071 425.571C83.0909 425.494 83.1687 425.404 83.2166 425.302C83.3244 425.063 83.3243 424.782 83.1927 424.537C67.7429 395.691 56.3936 364.902 49.4678 333.018C49.384 332.623 49.0309 332.348 48.6418 332.342C48.2587 330.566 47.8935 328.784 47.5404 327.007C48.9291 326.475 50.3358 325.883 51.7664 325.219C58.3929 322.139 65.2767 317.713 72.3341 312.002C82.7317 319.585 94.2667 327.091 106.885 334.478C112.404 343.012 118.294 351.505 124.568 359.926C124.813 360.261 125.07 360.59 125.322 360.919C125.082 361.218 125.046 361.642 125.292 361.965C135.899 376.08 147.35 389.704 159.537 402.749C159.537 402.749 159.537 402.749 159.537 402.755C159.579 402.802 159.621 402.844 159.663 402.892C160.717 404.023 161.782 405.147 162.848 406.265C163.129 406.564 163.41 406.857 163.698 407.156C164.667 408.173 165.643 409.184 166.625 410.189C167.038 410.613 167.445 411.032 167.858 411.451C168.732 412.348 169.612 413.239 170.498 414.124C171.06 414.692 171.623 415.255 172.192 415.817C172.509 416.134 172.826 416.457 173.143 416.774C173.143 416.923 173.197 417.067 173.275 417.198C152.917 437.796 133.187 452.611 114.613 461.235C112.141 462.383 109.704 463.412 107.304 464.327C98.4029 452.049 90.28 439.112 82.9951 425.565L83.0071 425.571ZM297.603 504.357C297.603 504.357 297.579 504.339 297.567 504.333C297.567 504.333 297.567 504.333 297.561 504.333C297.531 504.321 297.502 504.303 297.472 504.291C296.155 503.651 294.844 502.993 293.527 502.335C293.102 502.126 292.683 501.911 292.258 501.695C291.24 501.181 290.223 500.661 289.211 500.134C288.84 499.943 288.469 499.758 288.104 499.56C286.823 498.896 285.548 498.221 284.273 497.539C283.83 497.299 283.387 497.06 282.944 496.821C281.998 496.313 281.058 495.798 280.112 495.284C279.669 495.045 279.226 494.799 278.789 494.554C277.496 493.837 276.198 493.113 274.911 492.383C274.653 492.234 274.39 492.084 274.132 491.935C245.825 475.81 218.385 455.9 192.843 432.982C192.843 432.982 192.843 432.976 192.831 432.97C189.784 430.236 186.773 427.467 183.792 424.662C183.715 424.591 183.637 424.519 183.559 424.441C182.254 423.215 180.961 421.977 179.674 420.733C179.159 420.237 178.651 419.74 178.142 419.244C177.304 418.43 176.472 417.617 175.64 416.798C175.562 416.72 175.484 416.642 175.412 416.57C198.494 392.952 221.001 363.126 241.192 329.681C284.901 357.097 330.185 382.402 373.242 403.43C358.145 428.46 341.881 451.791 324.923 472.652C324.678 472.958 324.684 473.37 324.893 473.675C315.926 484.674 306.81 494.943 297.615 504.345L297.603 504.357ZM413.719 325.913C413.719 325.913 413.719 325.913 413.719 325.919C412.833 327.893 411.935 329.878 411.043 331.828C399.879 356.176 387.464 379.734 374.128 401.965C331.071 380.943 285.781 355.638 242.072 328.216C252.29 311.182 261.903 293.234 270.678 274.693C270.678 274.693 270.678 274.687 270.678 274.681C270.846 274.322 270.738 273.904 270.439 273.659C271.415 271.583 272.385 269.514 273.342 267.433C280.053 252.803 286.116 238.085 291.48 223.473C331.963 237.223 372.374 253.21 409.385 270.154C417.256 273.76 425.08 277.45 432.634 281.135C427.235 295.853 421.231 310.662 414.641 325.417C414.263 325.357 413.88 325.542 413.719 325.907V325.913ZM410.103 268.599C373.05 251.637 332.597 235.632 292.066 221.865C305.295 185.477 314.142 149.808 317.674 117.894C355.93 122.2 393.211 130.998 427.486 143.779C427.642 143.839 427.804 143.899 427.959 143.952C429.18 144.407 430.396 144.873 431.611 145.34C432.042 145.507 432.479 145.675 432.91 145.842C433.951 146.249 434.993 146.656 436.028 147.068C436.645 147.314 437.261 147.565 437.878 147.81C438.776 148.175 439.668 148.534 440.56 148.905C441.338 149.228 442.116 149.55 442.894 149.879C443.648 150.196 444.403 150.513 445.151 150.83C446.145 151.255 447.126 151.686 448.114 152.11C448.665 152.35 449.215 152.589 449.76 152.828C451.31 153.516 452.861 154.21 454.399 154.915C455.776 155.549 457.159 156.189 458.535 156.841C458.925 157.027 459.308 157.212 459.697 157.397C460.571 157.816 461.439 158.229 462.301 158.647C462.193 159.616 462.085 160.585 461.971 161.56C461.924 161.955 462.157 162.314 462.51 162.457C458.182 198.551 448.096 238.641 433.227 279.514C425.709 275.854 417.933 272.181 410.103 268.593V268.599ZM459.427 76.9433C461.517 84.7842 463.007 93.3367 463.905 102.541C463.546 102.673 463.3 103.026 463.336 103.426C464.821 119.353 464.533 137.314 462.492 156.829C461.786 156.488 461.068 156.147 460.355 155.806C459.948 155.615 459.541 155.418 459.134 155.226C457.799 154.598 456.452 153.97 455.112 153.354C455.046 153.324 454.974 153.294 454.908 153.265C453.441 152.595 451.975 151.937 450.496 151.279C449.862 150.998 449.221 150.723 448.581 150.442C447.683 150.047 446.779 149.658 445.875 149.269C445.061 148.923 444.247 148.582 443.427 148.241C442.715 147.942 441.996 147.643 441.278 147.344C440.326 146.949 439.374 146.566 438.423 146.177C437.866 145.95 437.303 145.729 436.747 145.501C435.657 145.065 434.562 144.634 433.46 144.204C433.089 144.06 432.712 143.917 432.341 143.773C431.066 143.283 429.791 142.792 428.504 142.314C428.42 142.284 428.336 142.254 428.253 142.224C409.924 135.37 390.733 129.646 370.901 125.137C370.847 125.125 370.788 125.119 370.734 125.119C353.662 121.237 336.183 118.271 318.494 116.255C320.559 96.6621 320.589 79.0725 318.632 63.8453C328.012 55.9506 337.314 49.1145 346.443 43.4567C346.526 43.4985 346.61 43.5404 346.694 43.5763C346.957 43.7079 347.275 43.6899 347.52 43.5344C350.25 41.8598 352.955 40.2988 355.637 38.8395C357.612 39.0189 359.588 39.2223 361.551 39.4376C361.605 39.8144 361.904 40.1254 362.305 40.1672C393.271 43.6839 422.751 51.77 449.922 64.2041C451.909 65.1132 453.908 66.0582 455.872 67.0151C456.021 67.0869 456.183 67.1108 456.339 67.0929C457.47 70.2089 458.494 73.4864 459.415 76.9313L459.427 76.9433ZM455.543 64.9518C453.92 64.1683 452.28 63.3967 450.652 62.6491C423.314 50.1373 393.66 41.9974 362.515 38.4627C362.114 38.4148 361.749 38.6541 361.617 39.0129C359.863 38.8215 358.103 38.6361 356.343 38.4746C366.178 33.1936 375.642 29.4137 384.555 27.2187C395.761 24.4616 406.146 24.1924 415.425 26.4173C415.808 26.507 416.191 26.3216 416.37 25.9927C421.411 27.2845 426.128 29.306 430.497 32.0632C441.326 38.8993 449.718 49.9399 455.543 64.9518ZM320.075 1.05264C320.158 1.41747 320.47 1.69857 320.865 1.71651C351.417 3.39712 381.131 10.7535 409.187 23.5824C401.418 22.7032 393.031 23.3551 384.148 25.5381C374.403 27.9364 364.035 32.1888 353.255 38.1936C351.83 38.0739 350.399 37.9603 348.963 37.8646C345.048 37.5895 341.133 37.3921 337.212 37.2665C336.955 37.1529 336.703 37.0393 336.446 36.9256C335.937 36.7043 335.428 36.489 334.926 36.2737C333.932 35.8491 332.944 35.4184 331.951 35.0058C331.352 34.7546 330.759 34.5153 330.161 34.2701C329.239 33.8933 328.317 33.5165 327.395 33.1517C326.797 32.9125 326.204 32.6852 325.606 32.452C325.031 32.2307 324.456 31.9974 323.882 31.7761C323.846 31.7642 323.81 31.7522 323.768 31.7462C318.225 29.635 312.67 27.7211 307.115 26.0166C306.193 24.3958 305.223 22.8348 304.206 21.3456C303.978 21.0166 303.571 20.897 303.212 21.0226C299.315 15.5203 294.742 11.0944 289.522 7.79901C285.733 5.40668 281.663 3.6543 277.335 2.52392C291.599 0.801443 305.888 0.311015 320.075 1.04666V1.05264ZM274.893 2.39832C258.18 4.58132 241.509 8.46288 225.096 14.043C224.892 13.738 224.515 13.5884 224.144 13.6901C243.251 3.24162 260.449 -0.562185 274.893 2.4043V2.39832ZM52.7781 128.6C52.9337 128.36 53.0893 128.127 53.245 127.888L53.7837 128.241C54.2386 127.547 54.6936 126.859 55.1485 126.177C52.6823 132.828 51.09 140.107 50.4316 147.924L51.084 147.978C50.7249 152.272 50.6351 156.739 50.8266 161.375C45.2896 159.55 41.0157 158.414 37.9988 157.966L38.1005 157.32C37.484 157.224 36.8016 157.14 36.1192 157.104C41.2731 147.272 46.852 137.708 52.7781 128.612V128.6ZM33.4255 162.337C35.5565 165.029 40.459 169.317 50.8027 176.578C35.4068 182.72 24.0934 190.579 17.042 200.017C21.699 187.349 27.2181 174.664 33.4255 162.337ZM9.64931 223.45C9.66128 223.115 9.69121 222.786 9.71515 222.451L10.3197 222.624C11.9659 216.853 13.8455 210.956 15.8927 205.094L15.749 205.047C22.124 194.215 33.8984 185.274 50.8027 178.426C50.695 178.635 50.5872 178.845 50.4795 179.06C34.078 199.478 21.5853 221.171 13.181 243.796C10.5592 236.727 9.36198 229.915 9.64332 223.45H9.64931ZM22.5251 262.48C20.4659 273.216 18.9754 284.047 18.0715 294.962C17.437 302.654 17.1018 310.363 17.0599 318.054C16.6828 318.144 16.4015 318.479 16.4015 318.886C16.4015 320.853 16.4134 322.821 16.4493 324.783C9.4398 319.621 4.60914 310.524 2.26864 297.965C3.29822 284.46 5.78837 270.931 9.70917 257.642C9.8229 257.259 9.6553 256.87 9.33804 256.667C10.5053 252.762 11.7923 248.88 13.205 245.022C15.4198 250.698 18.5325 256.535 22.5251 262.48ZM61.4397 466.57C67.8028 469.483 74.8722 470.852 82.5462 470.679C96.3617 481.301 111.644 490.738 128.315 498.896C132.122 523.262 140.281 541.552 152.582 553.256C152.869 553.531 153.294 553.549 153.623 553.352C154.18 553.866 154.743 554.362 155.311 554.847C127.896 540.672 103.718 521.797 83.3842 498.657C83.1268 498.364 82.7198 498.298 82.3846 498.454C73.1542 487.886 64.7799 476.51 57.3513 464.411C58.6802 465.2 60.045 465.924 61.4457 466.57H61.4397ZM172.521 563.974C168.439 562.658 164.614 560.84 161.046 558.555C161.178 558.154 161.004 557.7 160.609 557.508C159.418 556.928 158.238 556.324 157.059 555.726C155.982 554.883 154.94 553.98 153.917 553.041C153.929 553.023 153.941 553.005 153.953 552.987C154.102 552.664 154.036 552.263 153.761 552.006C141.675 540.499 133.66 522.389 129.943 498.185C129.901 497.904 129.721 497.664 129.47 497.539C113.398 489.704 98.6244 480.673 85.2159 470.547C87.6283 470.386 90.1004 470.081 92.6205 469.62C92.9079 469.566 93.1353 469.381 93.2491 469.13C93.291 469.046 93.3089 468.95 93.3209 468.855C97.7744 467.987 102.39 466.648 107.16 464.848C114.505 474.955 122.371 484.626 130.757 493.801C133.69 497.006 136.671 500.128 139.694 503.185C139.496 503.514 139.526 503.938 139.814 504.219C163.344 527.826 189.743 546.904 218.284 560.959C201.158 567.227 185.798 568.244 172.515 563.968L172.521 563.974ZM228.214 556.839C225.556 558.077 222.935 559.189 220.349 560.194C220.265 560.08 220.163 559.978 220.025 559.913C191.275 545.9 164.703 526.755 141.041 503.017C140.76 502.736 140.34 502.7 140.005 502.892C136.982 499.841 134.007 496.719 131.08 493.52C122.724 484.381 114.894 474.758 107.579 464.698C109.95 463.789 112.362 462.772 114.804 461.636C133.421 452.988 153.198 438.143 173.586 417.509C173.718 417.587 173.862 417.635 174.011 417.635C174.161 417.784 174.317 417.934 174.466 418.083C175.245 418.849 176.023 419.603 176.801 420.362C177.37 420.918 177.938 421.475 178.513 422.025C179.704 423.173 180.907 424.315 182.104 425.452C182.284 425.619 182.464 425.793 182.643 425.966C210.107 451.833 239.977 474.208 270.918 492.09C270.936 492.102 270.954 492.12 270.978 492.132C271.876 492.652 272.774 493.167 273.677 493.675C273.767 493.723 273.851 493.777 273.941 493.825C275.276 494.578 276.611 495.326 277.945 496.067C278.317 496.271 278.694 496.48 279.065 496.683C280.184 497.299 281.304 497.904 282.423 498.508C282.68 498.645 282.932 498.783 283.189 498.92C284.494 499.62 285.799 500.302 287.104 500.984C287.487 501.181 287.87 501.384 288.253 501.582C289.397 502.174 290.534 502.754 291.677 503.328C291.905 503.442 292.132 503.561 292.36 503.675C293.479 504.237 294.604 504.799 295.724 505.35C277.916 523.376 260.353 537.682 243.514 547.891C243.173 548.101 243.029 548.513 243.143 548.878C238.103 551.898 233.123 554.554 228.214 556.839Z" fill="#434D48"/>
</svg>
