<svg width="113" height="24" viewBox="0 0 113 24" fill="none" xmlns="http://www.w3.org/2000/svg">
<path d="M112.888 12.2616V23.673H110.044V12.4578C110.044 11.0436 109.725 9.98093 109.095 9.2861C108.466 8.59128 107.469 8.23978 106.12 8.23978C104.183 8.23978 102.842 8.78747 102.098 9.87466C101.354 10.9619 100.986 12.5313 100.986 14.5831V23.673H98.109V6.14714H100.431L100.856 8.53406H101.019C101.411 7.92098 101.894 7.42234 102.458 7.02997C103.046 6.61308 103.692 6.31063 104.387 6.11444C105.082 5.91826 105.801 5.82016 106.545 5.82016C108.638 5.82016 110.215 6.33515 111.286 7.35695C112.357 8.3624 112.888 9.99728 112.888 12.2616ZM92.7629 9.58038C93.3515 10.7575 93.6458 12.139 93.6458 13.733V15.4659H81.6458C81.6866 17.4523 82.1934 18.9646 83.1499 20.0109C84.1308 21.0327 85.4959 21.5477 87.237 21.5477C88.3488 21.5477 89.3297 21.4496 90.1798 21.2534C91.0545 21.0327 91.9455 20.7302 92.861 20.3379V22.8556C91.97 23.248 91.0872 23.5341 90.2125 23.7057C89.3379 23.9019 88.3079 24 87.1063 24C85.4469 24 83.9755 23.6649 82.6921 22.9864C81.4251 22.3079 80.436 21.3106 79.7166 19.9782C79.0218 18.6294 78.6703 16.9782 78.6703 15.0409C78.6703 13.1035 78.9891 11.4768 79.6185 10.1035C80.2725 8.73024 81.1798 7.67575 82.3324 6.93188C83.5095 6.18801 84.8746 5.82016 86.4196 5.82016C87.9646 5.82016 89.2071 6.14714 90.2779 6.80109C91.3651 7.45504 92.1989 8.37875 92.7629 9.58038ZM90.6376 13.1771C90.6376 12.1717 90.4823 11.3052 90.1798 10.5613C89.8774 9.81744 89.4033 9.24523 88.7738 8.82834C88.1607 8.39509 87.3678 8.17439 86.3869 8.17439C85.0136 8.17439 83.9264 8.62398 83.1172 9.51499C82.3324 10.3896 81.8665 11.6076 81.7112 13.1771H90.6376ZM66.3924 13.9619H71.5259V20.8937C71.1335 20.9837 70.7084 21.0654 70.2507 21.1553C69.8174 21.2452 69.327 21.3188 68.7793 21.3842C68.2561 21.4251 67.643 21.4496 66.9482 21.4496C64.8556 21.4496 63.1635 21.0572 61.8801 20.2725C60.5967 19.4632 59.6485 18.3515 59.0354 16.9373C58.4469 15.4986 58.1526 13.8556 58.1526 12C58.1526 10.1444 58.5041 8.39509 59.1989 6.99728C59.8937 5.58311 60.9074 4.48774 62.2398 3.72752C63.5722 2.9673 65.158 2.58311 67.0136 2.58311C68.1253 2.58311 69.1962 2.7139 70.218 2.97548C71.2643 3.23706 72.2043 3.55586 73.03 3.92371L74.1417 1.3733C73.1362 0.940054 72.049 0.59673 70.8719 0.359673C69.7193 0.122616 68.485 0 67.1771 0C64.6267 0 62.4441 0.498638 60.6376 1.50409C58.8474 2.48501 57.4741 3.86648 56.5177 5.65668C55.5613 7.44687 55.079 9.55586 55.079 12C55.079 14.4441 55.5041 16.6022 56.3542 18.4087C57.2289 20.1989 58.4877 21.5804 60.1471 22.5613C61.8065 23.5177 63.842 24 66.2616 24C67.8964 24 69.3597 23.9019 70.643 23.7057C71.9264 23.5095 73.2016 23.2071 74.4687 22.7902V11.346H66.3924V13.9619Z" fill="#BDFF00"/>
<path d="M50.297 6.34333L46.0872 12.3515V14.4033L51.8011 6.34333H50.297ZM15.3024 16.1199V17.3951C15.327 17.8283 15.3351 18.2779 15.3351 18.7357V20.0763C15.3597 20.4932 15.3678 20.8856 15.3678 21.2534H15.3024L3.30245 3.43324V5.77929L15.3678 23.673H16.545V0.326977H15.3024V16.1199ZM38.1662 6.34333L43.9291 14.3787V12.376L39.6703 6.34333H38.1662ZM1.14441 2.6812V0.326977H0V23.673H1.20981V5.297C1.20981 4.86376 1.20163 4.43869 1.17711 4.0218C1.15259 3.58856 1.14441 3.13897 1.14441 2.6812ZM46.0872 17.1907L50.6894 23.673H52.1934L46.0872 15.1471V17.1826V17.1907ZM32.9591 7.09537C32.1826 6.49864 31.218 6.17166 30.0736 6.0654V7.20981C30.9155 7.3079 31.643 7.56948 32.2398 8.0109C33 8.57493 33.5722 9.37602 33.94 10.3978C34.3079 11.4196 34.4959 12.6131 34.4959 13.9619H23.1499C23.346 11.7384 23.9918 10.0463 25.079 8.89373C25.8556 8.06812 26.8038 7.54496 27.9237 7.3079V6.13897C26.8774 6.31063 25.9618 6.67848 25.1771 7.25886C24.0654 8.08447 23.2234 9.18801 22.6594 10.5613C22.0954 11.9346 21.8093 13.4714 21.8093 15.1717C21.8093 16.8719 22.0954 18.4332 22.6594 19.782C23.2234 21.1144 24.0981 22.1444 25.2752 22.8883C26.4523 23.6322 27.9237 24 29.6894 24C30.7766 24 31.7411 23.9101 32.5668 23.7384C33.4169 23.5668 34.267 23.2888 35.1172 22.921V21.6785C34.1362 22.1362 33.2534 22.455 32.4687 22.6267C31.7084 22.782 30.7929 22.8556 29.7221 22.8556C27.5886 22.8556 25.9537 22.1935 24.8174 20.861C23.6812 19.5123 23.1172 17.5831 23.1172 15.0736H35.8038V14.0599C35.8038 12.5313 35.5667 11.1744 35.0845 9.97275C34.6267 8.75477 33.9155 7.79019 32.9591 7.09537ZM39.3515 23.673L43.9373 17.1826V15.188L37.8801 23.6812H39.3515V23.673Z" fill="white"/>
</svg>
