<svg width="44" height="44" viewBox="0 0 44 44" fill="none" xmlns="http://www.w3.org/2000/svg">
<path d="M16.5255 3.55658C17.5022 3.48968 18.2447 2.64008 18.1778 1.65667C18.1109 0.673267 17.2614 -0.0626151 16.2781 0.00428324C15.3014 0.0711816 14.5589 0.920787 14.6258 1.90419C14.6927 2.8876 15.5422 3.62348 16.5255 3.55658ZM2.98139 26.282C4.22559 26.195 5.16879 25.1179 5.08183 23.8669C4.99487 22.6226 3.91788 21.6794 2.667 21.7663C1.42281 21.8533 0.479637 22.9304 0.566597 24.1814C0.653557 25.4257 1.73051 26.3689 2.98139 26.282ZM11.8431 43.0955C13.0137 43.0152 13.8967 41.9984 13.8164 40.8277C13.7361 39.6569 12.7194 38.7739 11.5488 38.8542C10.3782 38.9344 9.49518 39.9513 9.57545 41.122C9.65572 42.2927 10.6725 43.1758 11.8431 43.0955ZM26.0126 22.1747C24.8219 22.2549 23.9188 23.2919 24.0058 24.4827C24.086 25.6734 25.1229 26.5766 26.3136 26.4896C27.5043 26.4093 28.4073 25.3724 28.3203 24.1816C28.2401 22.9908 27.2032 22.0877 26.0126 22.1747Z" fill="#BDFF00"/>
<path d="M44 32.0001C44 34.7615 41.7614 37.0001 39 37.0001C36.2386 37.0001 34 34.7615 34 32.0001C34 29.2386 36.2386 27.0001 39 27.0001C41.7614 27.0001 44 29.2386 44 32.0001Z" fill="#BDFF00"/>
</svg>
