<svg width="52" height="47" viewBox="0 0 52 47" fill="none" xmlns="http://www.w3.org/2000/svg">
<path d="M48.9814 26.2819C50.2256 26.1949 51.1688 25.1179 51.0818 23.8669C50.9949 22.6226 49.9179 21.6793 48.667 21.7662C47.4228 21.8532 46.4797 22.9303 46.5666 24.1813C46.6536 25.4256 47.7305 26.3689 48.9814 26.2819ZM17.8431 7.09544C19.0137 7.01516 19.8967 5.99832 19.8164 4.82759C19.7361 3.65687 18.7194 2.77381 17.5488 2.85408C16.3782 2.93436 15.4952 3.95121 15.5755 5.12193C15.6557 6.29265 16.6725 7.17572 17.8431 7.09544ZM2.01256 42.1746C0.821884 42.2549 -0.0811702 43.2918 0.00578965 44.4826C0.0860603 45.6734 1.12291 46.5765 2.31359 46.4895C3.50427 46.4093 4.40731 45.3723 4.32035 44.1815C4.24008 42.9907 3.20325 42.0876 2.01256 42.1746ZM46.6958 4.46763C47.6724 4.40073 48.4149 3.55112 48.348 2.56771C48.2812 1.59099 47.4316 0.848423 46.4483 0.915321C45.4717 0.982219 44.7292 1.83182 44.7961 2.81523C44.863 3.79195 45.7125 4.53453 46.6958 4.46763Z" fill="#BDFF00"/>
<path d="M32 7.49998C32 9.43298 30.433 11 28.5 11C26.567 11 25 9.43298 25 7.49998C25 5.56699 26.567 3.99998 28.5 3.99998C30.433 3.99998 32 5.56699 32 7.49998Z" fill="#BDFF00"/>
</svg>
