<svg width="52" height="46" viewBox="0 0 52 46" fill="none" xmlns="http://www.w3.org/2000/svg">
<path d="M48.9814 20.2134C50.2256 20.3004 51.1688 21.3775 51.0818 22.6285C50.9949 23.8728 49.9179 24.8161 48.667 24.7291C47.4228 24.6421 46.4797 23.565 46.5666 22.314C46.6536 21.0697 47.7305 20.1265 48.9814 20.2134ZM2.01256 4.32075C0.821884 4.24047 -0.0811702 3.20354 0.00578965 2.01275C0.0860603 0.821957 1.12291 -0.0811777 2.31359 0.0057902C3.50427 0.0860682 4.40731 1.12301 4.32035 2.3138C4.24008 3.50459 3.20325 4.40771 2.01256 4.32075ZM46.6958 42.0277C47.6724 42.0946 48.4149 42.9442 48.348 43.9276C48.2812 44.9043 47.4316 45.6469 46.4483 45.58C45.4717 45.5131 44.7292 44.6635 44.7961 43.6801C44.863 42.7034 45.7125 41.9608 46.6958 42.0277Z" fill="#BDFF00"/>
<path d="M23 28C23 30.7614 20.7614 33 18 33C15.2386 33 13 30.7614 13 28C13 25.2386 15.2386 23 18 23C20.7614 23 23 25.2386 23 28Z" fill="#BDFF00"/>
</svg>
