<svg width="50" height="37" viewBox="0 0 50 37" fill="none" xmlns="http://www.w3.org/2000/svg">
<path d="M2.10599 26.2819C0.8618 26.1949 -0.0813983 25.1179 0.00556156 23.8669C0.0925214 22.6226 1.1695 21.6793 2.42039 21.7662C3.66458 21.8532 4.60775 22.9303 4.52079 24.1813C4.43383 25.4256 3.35688 26.3689 2.10599 26.2819ZM33.2443 7.09544C32.0737 7.01516 31.1907 5.99832 31.271 4.82759C31.3513 3.65687 32.368 2.77381 33.5386 2.85408C34.7092 2.93436 35.5922 3.95121 35.5119 5.12193C35.4317 6.29265 34.4149 7.17572 33.2443 7.09544ZM4.39159 4.46763C3.41497 4.40073 2.67246 3.55112 2.73936 2.56771C2.80625 1.59099 3.65577 0.848423 4.63909 0.915321C5.61572 0.982219 6.35822 1.83182 6.29133 2.81523C6.22443 3.79195 5.37491 4.53453 4.39159 4.46763Z" fill="#BDFF00"/>
<path d="M50 26C50 28.2091 48.2091 30 46 30C43.7909 30 42 28.2091 42 26C42 23.7908 43.7909 22 46 22C48.2091 22 50 23.7908 50 26Z" fill="#BDFF00"/>
<path d="M25 35C25 36.1046 24.1046 37 23 37C21.8954 37 21 36.1046 21 35C21 33.8954 21.8954 33 23 33C24.1046 33 25 33.8954 25 35Z" fill="#BDFF00"/>
</svg>
