<svg aria-hidden="true" style="position: absolute; width: 0; height: 0; overflow: hidden;" version="1.1" xmlns="http://www.w3.org/2000/svg" xmlns:xlink="http://www.w3.org/1999/xlink">
<defs>
<symbol id="icon-arrow-left" viewBox="0 0 32 32">
<path stroke-linejoin="miter" stroke-linecap="butt" stroke-miterlimit="10" stroke-width="1.3333" d="M8 10.667v13.333h13.333"></path>
<path stroke-linejoin="miter" stroke-linecap="butt" stroke-miterlimit="10" stroke-width="1.3333" d="M8 24l17.333-17.333"></path>
</symbol>
<symbol id="icon-arrow-right" viewBox="0 0 32 32">
<path stroke-linejoin="miter" stroke-linecap="butt" stroke-miterlimit="10" stroke-width="1.3333" d="M19.085 6.667l9.428 9.428M28.513 16.095l-9.428 9.428M28.513 16.095h-24.513"></path>
</symbol>
<svg width="24" height="24" viewBox="0 0 24 24" fill="none" xmlns="http://www.w3.org/2000/svg">
<path d="M18 8V18H8" stroke="#041914" stroke-miterlimit="10"/>
<path d="M18 18L5 5" stroke="#041914" stroke-miterlimit="10"/>
</svg>
<symbol id="icon-check" viewBox="0 0 32 32">
<path stroke-linejoin="round" stroke-linecap="round" stroke-miterlimit="10" stroke-width="1.3333" d="M22.154 11.831l-8.339 8.338-3.969-3.969M30.667 16c0 8.1-6.567 14.667-14.667 14.667s-14.667-6.567-14.667-14.667c0-8.1 6.566-14.667 14.667-14.667s14.667 6.566 14.667 14.667z"></path>
</symbol>
<symbol id="icon-cross" viewBox="0 0 32 32">
<path stroke-linejoin="miter" stroke-linecap="butt" stroke-miterlimit="4" stroke-width="1.3333" d="M1.333 1.333l29.333 29.333M30.667 1.333l-29.333 29.333"></path>
</symbol>
<symbol id="icon-location" viewBox="0 0 32 32">
<path stroke-linejoin="round" stroke-linecap="round" stroke-miterlimit="10" stroke-width="1.3333" d="M15.375 30.667c-3.651-5.477-10.041-12.902-10.041-19.292 0-5.537 4.505-10.041 10.041-10.041s10.041 4.505 10.041 10.041c0 6.39-6.39 13.815-10.041 19.292z"></path>
<path stroke-linejoin="round" stroke-linecap="round" stroke-miterlimit="10" stroke-width="1.3333" d="M15.375 15.939c-2.517 0-4.564-2.048-4.564-4.564s2.048-4.564 4.564-4.564c2.517 0 4.564 2.048 4.564 4.564s-2.048 4.564-4.564 4.564z"></path>
</symbol>
<symbol id="icon-menu" viewBox="0 0 32 32">
<path stroke-linejoin="miter" stroke-linecap="butt" stroke-miterlimit="4" stroke-width="1.3333" d="M0 2.667h32M0 16h32M0 29.333h32"></path>
</symbol>
<symbol id="icon-telegram" viewBox="0 0 32 32">
<path stroke-linejoin="round" stroke-linecap="round" stroke-miterlimit="10" stroke-width="1.3333" d="M23.582 9.475l-11.932 11.839v9.353l4.534-6.185M25.695 30.667l4.972-29.333-29.333 13.119 24.362 16.214z"></path>
</symbol>
</defs>
</svg>
<svg width="212" height="212" viewBox="0 0 212 212" fill="none" xmlns="http://www.w3.org/2000/svg">
<symbol id="icon-bar-code" viewBox="0 0 32 32">
<path d="M80.5462 0.54541H73.2734V7.81814H80.5462V0.54541Z" fill="black"/>
<path d="M87.8186 0.54541H80.5459V7.81814H87.8186V0.54541Z" fill="black"/>
<path d="M102.365 0.54541H95.0918V7.81814H102.365V0.54541Z" fill="black"/>
<path d="M109.637 0.54541H102.364V7.81814H109.637V0.54541Z" fill="black"/>
<path d="M116.909 0.54541H109.637V7.81814H116.909V0.54541Z" fill="black"/>
<path d="M124.182 0.54541H116.909V7.81814H124.182V0.54541Z" fill="black"/>
<path d="M131.455 0.54541H124.183V7.81814H131.455V0.54541Z" fill="black"/>
<path d="M138.728 0.54541H131.455V7.81814H138.728V0.54541Z" fill="black"/>
<path d="M146 0.54541H138.728V7.81814H146V0.54541Z" fill="black"/>
<path d="M153.273 0.54541H146V7.81814H153.273V0.54541Z" fill="black"/>
<path d="M66.0003 7.81812H58.7275V15.0908H66.0003V7.81812Z" fill="black"/>
<path d="M73.2727 7.81812H66V15.0908H73.2727V7.81812Z" fill="black"/>
<path d="M95.0911 7.81812H87.8184V15.0908H95.0911V7.81812Z" fill="black"/>
<path d="M102.365 7.81812H95.0918V15.0908H102.365V7.81812Z" fill="black"/>
<path d="M116.909 7.81812H109.637V15.0908H116.909V7.81812Z" fill="black"/>
<path d="M124.182 7.81812H116.909V15.0908H124.182V7.81812Z" fill="black"/>
<path d="M146 7.81812H138.728V15.0908H146V7.81812Z" fill="black"/>
<path d="M87.8186 15.0909H80.5459V22.3636H87.8186V15.0909Z" fill="black"/>
<path d="M102.365 15.0908H95.0918V22.3635H102.365V15.0908Z" fill="black"/>
<path d="M109.637 15.0909H102.364V22.3636H109.637V15.0909Z" fill="black"/>
<path d="M131.455 15.0908H124.183V22.3635H131.455V15.0908Z" fill="black"/>
<path d="M138.728 15.0909H131.455V22.3636H138.728V15.0909Z" fill="black"/>
<path d="M73.2727 22.3636H66V29.6363H73.2727V22.3636Z" fill="black"/>
<path d="M80.5462 22.3636H73.2734V29.6363H80.5462V22.3636Z" fill="black"/>
<path d="M95.0911 22.3636H87.8184V29.6363H95.0911V22.3636Z" fill="black"/>
<path d="M102.365 22.3636H95.0918V29.6363H102.365V22.3636Z" fill="black"/>
<path d="M124.182 22.3636H116.909V29.6363H124.182V22.3636Z" fill="black"/>
<path d="M138.728 22.3636H131.455V29.6363H138.728V22.3636Z" fill="black"/>
<path d="M80.5462 29.6364H73.2734V36.9091H80.5462V29.6364Z" fill="black"/>
<path d="M87.8186 29.6363H80.5459V36.909H87.8186V29.6363Z" fill="black"/>
<path d="M102.365 29.6364H95.0918V36.9091H102.365V29.6364Z" fill="black"/>
<path d="M109.637 29.6363H102.364V36.909H109.637V29.6363Z" fill="black"/>
<path d="M116.909 29.6363H109.637V36.909H116.909V29.6363Z" fill="black"/>
<path d="M131.455 29.6364H124.183V36.9091H131.455V29.6364Z" fill="black"/>
<path d="M138.728 29.6363H131.455V36.909H138.728V29.6363Z" fill="black"/>
<path d="M66.0003 36.9091H58.7275V44.1818H66.0003V36.9091Z" fill="black"/>
<path d="M73.2727 36.9091H66V44.1818H73.2727V36.9091Z" fill="black"/>
<path d="M109.637 36.9091H102.364V44.1818H109.637V36.9091Z" fill="black"/>
<path d="M124.182 36.9091H116.909V44.1818H124.182V36.9091Z" fill="black"/>
<path d="M131.455 36.9091H124.183V44.1818H131.455V36.9091Z" fill="black"/>
<path d="M146 36.9091H138.728V44.1818H146V36.9091Z" fill="black"/>
<path d="M153.273 36.9091H146V44.1818H153.273V36.9091Z" fill="black"/>
<path d="M66.0003 44.1818H58.7275V51.4545H66.0003V44.1818Z" fill="black"/>
<path d="M80.5462 44.1818H73.2734V51.4545H80.5462V44.1818Z" fill="black"/>
<path d="M95.0911 44.1818H87.8184V51.4545H95.0911V44.1818Z" fill="black"/>
<path d="M109.637 44.1818H102.364V51.4545H109.637V44.1818Z" fill="black"/>
<path d="M124.182 44.1818H116.909V51.4545H124.182V44.1818Z" fill="black"/>
<path d="M138.728 44.1818H131.455V51.4545H138.728V44.1818Z" fill="black"/>
<path d="M153.273 44.1818H146V51.4545H153.273V44.1818Z" fill="black"/>
<path d="M66.0003 51.4545H58.7275V58.7273H66.0003V51.4545Z" fill="black"/>
<path d="M80.5462 51.4545H73.2734V58.7272H80.5462V51.4545Z" fill="black"/>
<path d="M95.0911 51.4545H87.8184V58.7272H95.0911V51.4545Z" fill="black"/>
<path d="M124.182 51.4545H116.909V58.7272H124.182V51.4545Z" fill="black"/>
<path d="M146 51.4545H138.728V58.7273H146V51.4545Z" fill="black"/>
<path d="M153.273 51.4545H146V58.7272H153.273V51.4545Z" fill="black"/>
<path d="M36.9094 58.7272H29.6367V66H36.9094V58.7272Z" fill="black"/>
<path d="M44.1819 58.7272H36.9092V66H44.1819V58.7272Z" fill="black"/>
<path d="M51.4553 58.7272H44.1826V66H51.4553V58.7272Z" fill="black"/>
<path d="M58.7278 58.7272H51.4551V66H58.7278V58.7272Z" fill="black"/>
<path d="M73.2727 58.7272H66V66H73.2727V58.7272Z" fill="black"/>
<path d="M87.8186 58.7272H80.5459V66H87.8186V58.7272Z" fill="black"/>
<path d="M116.909 58.7272H109.637V66H116.909V58.7272Z" fill="black"/>
<path d="M153.273 58.7272H146V66H153.273V58.7272Z" fill="black"/>
<path d="M167.819 58.7272H160.546V66H167.819V58.7272Z" fill="black"/>
<path d="M175.091 58.7272H167.818V66H175.091V58.7272Z" fill="black"/>
<path d="M204.182 58.7272H196.909V66H204.182V58.7272Z" fill="black"/>
<path d="M15.0911 66H7.81836V73.2727H15.0911V66Z" fill="black"/>
<path d="M29.637 65.9999H22.3643V73.2727H29.637V65.9999Z" fill="black"/>
<path d="M66.0003 65.9999H58.7275V73.2727H66.0003V65.9999Z" fill="black"/>
<path d="M73.2727 66H66V73.2727H73.2727V66Z" fill="black"/>
<path d="M80.5462 66H73.2734V73.2727H80.5462V66Z" fill="black"/>
<path d="M87.8186 65.9999H80.5459V73.2727H87.8186V65.9999Z" fill="black"/>
<path d="M102.365 66H95.0918V73.2727H102.365V66Z" fill="black"/>
<path d="M124.182 66H116.909V73.2727H124.182V66Z" fill="black"/>
<path d="M138.728 65.9999H131.455V73.2727H138.728V65.9999Z" fill="black"/>
<path d="M167.819 65.9999H160.546V73.2727H167.819V65.9999Z" fill="black"/>
<path d="M175.091 66H167.818V73.2727H175.091V66Z" fill="black"/>
<path d="M182.365 66H175.092V73.2727H182.365V66Z" fill="black"/>
<path d="M189.637 65.9999H182.364V73.2727H189.637V65.9999Z" fill="black"/>
<path d="M204.182 66H196.909V73.2727H204.182V66Z" fill="black"/>
<path d="M211.455 66H204.183V73.2727H211.455V66Z" fill="black"/>
<path d="M15.0911 73.2727H7.81836V80.5454H15.0911V73.2727Z" fill="black"/>
<path d="M29.637 73.2727H22.3643V80.5454H29.637V73.2727Z" fill="black"/>
<path d="M36.9094 73.2727H29.6367V80.5454H36.9094V73.2727Z" fill="black"/>
<path d="M51.4553 73.2727H44.1826V80.5454H51.4553V73.2727Z" fill="black"/>
<path d="M80.5462 73.2727H73.2734V80.5454H80.5462V73.2727Z" fill="black"/>
<path d="M87.8186 73.2727H80.5459V80.5454H87.8186V73.2727Z" fill="black"/>
<path d="M109.637 73.2727H102.364V80.5454H109.637V73.2727Z" fill="black"/>
<path d="M116.909 73.2727H109.637V80.5454H116.909V73.2727Z" fill="black"/>
<path d="M124.182 73.2727H116.909V80.5454H124.182V73.2727Z" fill="black"/>
<path d="M131.455 73.2727H124.183V80.5454H131.455V73.2727Z" fill="black"/>
<path d="M160.546 73.2727H153.273V80.5454H160.546V73.2727Z" fill="black"/>
<path d="M182.365 73.2727H175.092V80.5454H182.365V73.2727Z" fill="black"/>
<path d="M211.455 73.2727H204.183V80.5454H211.455V73.2727Z" fill="black"/>
<path d="M22.3645 80.5454H15.0918V87.8181H22.3645V80.5454Z" fill="black"/>
<path d="M29.637 80.5454H22.3643V87.8181H29.637V80.5454Z" fill="black"/>
<path d="M44.1819 80.5454H36.9092V87.8181H44.1819V80.5454Z" fill="black"/>
<path d="M58.7278 80.5454H51.4551V87.8181H58.7278V80.5454Z" fill="black"/>
<path d="M73.2727 80.5454H66V87.8181H73.2727V80.5454Z" fill="black"/>
<path d="M87.8186 80.5454H80.5459V87.8181H87.8186V80.5454Z" fill="black"/>
<path d="M95.0911 80.5454H87.8184V87.8181H95.0911V80.5454Z" fill="black"/>
<path d="M102.365 80.5454H95.0918V87.8181H102.365V80.5454Z" fill="black"/>
<path d="M124.182 80.5454H116.909V87.8181H124.182V80.5454Z" fill="black"/>
<path d="M131.455 80.5454H124.183V87.8181H131.455V80.5454Z" fill="black"/>
<path d="M146 80.5454H138.728V87.8181H146V80.5454Z" fill="black"/>
<path d="M153.273 80.5454H146V87.8181H153.273V80.5454Z" fill="black"/>
<path d="M160.546 80.5454H153.273V87.8181H160.546V80.5454Z" fill="black"/>
<path d="M182.365 80.5454H175.092V87.8181H182.365V80.5454Z" fill="black"/>
<path d="M189.637 80.5454H182.364V87.8181H189.637V80.5454Z" fill="black"/>
<path d="M204.182 80.5454H196.909V87.8181H204.182V80.5454Z" fill="black"/>
<path d="M211.455 80.5454H204.183V87.8181H211.455V80.5454Z" fill="black"/>
<path d="M7.81863 87.8181H0.545898V95.0908H7.81863V87.8181Z" fill="black"/>
<path d="M15.0911 87.8181H7.81836V95.0908H15.0911V87.8181Z" fill="black"/>
<path d="M22.3645 87.8181H15.0918V95.0908H22.3645V87.8181Z" fill="black"/>
<path d="M29.637 87.8181H22.3643V95.0908H29.637V87.8181Z" fill="black"/>
<path d="M44.1819 87.8181H36.9092V95.0908H44.1819V87.8181Z" fill="black"/>
<path d="M51.4553 87.8181H44.1826V95.0908H51.4553V87.8181Z" fill="black"/>
<path d="M58.7278 87.8181H51.4551V95.0908H58.7278V87.8181Z" fill="black"/>
<path d="M66.0003 87.8181H58.7275V95.0908H66.0003V87.8181Z" fill="black"/>
<path d="M87.8186 87.8181H80.5459V95.0908H87.8186V87.8181Z" fill="black"/>
<path d="M95.0911 87.8181H87.8184V95.0908H95.0911V87.8181Z" fill="black"/>
<path d="M102.365 87.8181H95.0918V95.0908H102.365V87.8181Z" fill="black"/>
<path d="M116.909 87.8181H109.637V95.0908H116.909V87.8181Z" fill="black"/>
<path d="M131.455 87.8181H124.183V95.0908H131.455V87.8181Z" fill="black"/>
<path d="M138.728 87.8181H131.455V95.0908H138.728V87.8181Z" fill="black"/>
<path d="M153.273 87.8181H146V95.0908H153.273V87.8181Z" fill="black"/>
<path d="M175.091 87.8181H167.818V95.0908H175.091V87.8181Z" fill="black"/>
<path d="M211.455 87.8181H204.183V95.0908H211.455V87.8181Z" fill="black"/>
<path d="M7.81863 95.0909H0.545898V102.364H7.81863V95.0909Z" fill="black"/>
<path d="M58.7278 95.0909H51.4551V102.364H58.7278V95.0909Z" fill="black"/>
<path d="M80.5462 95.0908H73.2734V102.364H80.5462V95.0908Z" fill="black"/>
<path d="M87.8186 95.0909H80.5459V102.364H87.8186V95.0909Z" fill="black"/>
<path d="M124.182 95.0908H116.909V102.364H124.182V95.0908Z" fill="black"/>
<path d="M131.455 95.0908H124.183V102.364H131.455V95.0908Z" fill="black"/>
<path d="M138.728 95.0909H131.455V102.364H138.728V95.0909Z" fill="black"/>
<path d="M153.273 95.0908H146V102.364H153.273V95.0908Z" fill="black"/>
<path d="M167.819 95.0909H160.546V102.364H167.819V95.0909Z" fill="black"/>
<path d="M182.365 95.0908H175.092V102.364H182.365V95.0908Z" fill="black"/>
<path d="M196.909 95.0909H189.637V102.364H196.909V95.0909Z" fill="black"/>
<path d="M7.81863 102.364H0.545898V109.636H7.81863V102.364Z" fill="black"/>
<path d="M29.637 102.364H22.3643V109.636H29.637V102.364Z" fill="black"/>
<path d="M44.1819 102.364H36.9092V109.636H44.1819V102.364Z" fill="black"/>
<path d="M51.4553 102.364H44.1826V109.636H51.4553V102.364Z" fill="black"/>
<path d="M66.0003 102.364H58.7275V109.636H66.0003V102.364Z" fill="black"/>
<path d="M73.2727 102.364H66V109.636H73.2727V102.364Z" fill="black"/>
<path d="M95.0911 102.364H87.8184V109.636H95.0911V102.364Z" fill="black"/>
<path d="M124.182 102.364H116.909V109.636H124.182V102.364Z" fill="black"/>
<path d="M160.546 102.364H153.273V109.636H160.546V102.364Z" fill="black"/>
<path d="M167.819 102.364H160.546V109.636H167.819V102.364Z" fill="black"/>
<path d="M182.365 102.364H175.092V109.636H182.365V102.364Z" fill="black"/>
<path d="M211.455 102.364H204.183V109.636H211.455V102.364Z" fill="black"/>
<path d="M7.81863 109.636H0.545898V116.909H7.81863V109.636Z" fill="black"/>
<path d="M36.9094 109.636H29.6367V116.909H36.9094V109.636Z" fill="black"/>
<path d="M44.1819 109.636H36.9092V116.909H44.1819V109.636Z" fill="black"/>
<path d="M73.2727 109.636H66V116.909H73.2727V109.636Z" fill="black"/>
<path d="M95.0911 109.636H87.8184V116.909H95.0911V109.636Z" fill="black"/>
<path d="M102.365 109.636H95.0918V116.909H102.365V109.636Z" fill="black"/>
<path d="M109.637 109.636H102.364V116.909H109.637V109.636Z" fill="black"/>
<path d="M124.182 109.636H116.909V116.909H124.182V109.636Z" fill="black"/>
<path d="M131.455 109.636H124.183V116.909H131.455V109.636Z" fill="black"/>
<path d="M138.728 109.636H131.455V116.909H138.728V109.636Z" fill="black"/>
<path d="M153.273 109.636H146V116.909H153.273V109.636Z" fill="black"/>
<path d="M167.819 109.636H160.546V116.909H167.819V109.636Z" fill="black"/>
<path d="M175.091 109.636H167.818V116.909H175.091V109.636Z" fill="black"/>
<path d="M189.637 109.636H182.364V116.909H189.637V109.636Z" fill="black"/>
<path d="M15.0911 116.909H7.81836V124.182H15.0911V116.909Z" fill="black"/>
<path d="M22.3645 116.909H15.0918V124.182H22.3645V116.909Z" fill="black"/>
<path d="M29.637 116.909H22.3643V124.182H29.637V116.909Z" fill="black"/>
<path d="M51.4553 116.909H44.1826V124.182H51.4553V116.909Z" fill="black"/>
<path d="M58.7278 116.909H51.4551V124.182H58.7278V116.909Z" fill="black"/>
<path d="M66.0003 116.909H58.7275V124.182H66.0003V116.909Z" fill="black"/>
<path d="M73.2727 116.909H66V124.182H73.2727V116.909Z" fill="black"/>
<path d="M80.5462 116.909H73.2734V124.182H80.5462V116.909Z" fill="black"/>
<path d="M116.909 116.909H109.637V124.182H116.909V116.909Z" fill="black"/>
<path d="M131.455 116.909H124.183V124.182H131.455V116.909Z" fill="black"/>
<path d="M138.728 116.909H131.455V124.182H138.728V116.909Z" fill="black"/>
<path d="M146 116.909H138.728V124.182H146V116.909Z" fill="black"/>
<path d="M153.273 116.909H146V124.182H153.273V116.909Z" fill="black"/>
<path d="M160.546 116.909H153.273V124.182H160.546V116.909Z" fill="black"/>
<path d="M175.091 116.909H167.818V124.182H175.091V116.909Z" fill="black"/>
<path d="M182.365 116.909H175.092V124.182H182.365V116.909Z" fill="black"/>
<path d="M204.182 116.909H196.909V124.182H204.182V116.909Z" fill="black"/>
<path d="M211.455 116.909H204.183V124.182H211.455V116.909Z" fill="black"/>
<path d="M7.81863 124.182H0.545898V131.454H7.81863V124.182Z" fill="black"/>
<path d="M15.0911 124.182H7.81836V131.454H15.0911V124.182Z" fill="black"/>
<path d="M36.9094 124.182H29.6367V131.454H36.9094V124.182Z" fill="black"/>
<path d="M58.7278 124.182H51.4551V131.454H58.7278V124.182Z" fill="black"/>
<path d="M66.0003 124.182H58.7275V131.454H66.0003V124.182Z" fill="black"/>
<path d="M87.8186 124.182H80.5459V131.454H87.8186V124.182Z" fill="black"/>
<path d="M102.365 124.182H95.0918V131.454H102.365V124.182Z" fill="black"/>
<path d="M109.637 124.182H102.364V131.454H109.637V124.182Z" fill="black"/>
<path d="M116.909 124.182H109.637V131.454H116.909V124.182Z" fill="black"/>
<path d="M160.546 124.182H153.273V131.454H160.546V124.182Z" fill="black"/>
<path d="M167.819 124.182H160.546V131.454H167.819V124.182Z" fill="black"/>
<path d="M175.091 124.182H167.818V131.454H175.091V124.182Z" fill="black"/>
<path d="M182.365 124.182H175.092V131.454H182.365V124.182Z" fill="black"/>
<path d="M189.637 124.182H182.364V131.454H189.637V124.182Z" fill="black"/>
<path d="M196.909 124.182H189.637V131.454H196.909V124.182Z" fill="black"/>
<path d="M211.455 124.182H204.183V131.454H211.455V124.182Z" fill="black"/>
<path d="M29.637 131.454H22.3643V138.727H29.637V131.454Z" fill="black"/>
<path d="M36.9094 131.454H29.6367V138.727H36.9094V131.454Z" fill="black"/>
<path d="M44.1819 131.454H36.9092V138.727H44.1819V131.454Z" fill="black"/>
<path d="M51.4553 131.454H44.1826V138.727H51.4553V131.454Z" fill="black"/>
<path d="M58.7278 131.454H51.4551V138.727H58.7278V131.454Z" fill="black"/>
<path d="M73.2727 131.454H66V138.727H73.2727V131.454Z" fill="black"/>
<path d="M87.8186 131.454H80.5459V138.727H87.8186V131.454Z" fill="black"/>
<path d="M102.365 131.454H95.0918V138.727H102.365V131.454Z" fill="black"/>
<path d="M109.637 131.454H102.364V138.727H109.637V131.454Z" fill="black"/>
<path d="M116.909 131.454H109.637V138.727H116.909V131.454Z" fill="black"/>
<path d="M131.455 131.454H124.183V138.727H131.455V131.454Z" fill="black"/>
<path d="M153.273 131.454H146V138.727H153.273V131.454Z" fill="black"/>
<path d="M196.909 131.454H189.637V138.727H196.909V131.454Z" fill="black"/>
<path d="M211.455 131.454H204.183V138.727H211.455V131.454Z" fill="black"/>
<path d="M44.1819 138.727H36.9092V146H44.1819V138.727Z" fill="black"/>
<path d="M58.7278 138.727H51.4551V146H58.7278V138.727Z" fill="black"/>
<path d="M66.0003 138.727H58.7275V146H66.0003V138.727Z" fill="black"/>
<path d="M116.909 138.727H109.637V146H116.909V138.727Z" fill="black"/>
<path d="M131.455 138.727H124.183V146H131.455V138.727Z" fill="black"/>
<path d="M138.728 138.727H131.455V146H138.728V138.727Z" fill="black"/>
<path d="M182.365 138.727H175.092V146H182.365V138.727Z" fill="black"/>
<path d="M189.637 138.727H182.364V146H189.637V138.727Z" fill="black"/>
<path d="M7.81863 146H0.545898V153.273H7.81863V146Z" fill="black"/>
<path d="M15.0911 146H7.81836V153.273H15.0911V146Z" fill="black"/>
<path d="M29.637 146H22.3643V153.273H29.637V146Z" fill="black"/>
<path d="M44.1819 146H36.9092V153.273H44.1819V146Z" fill="black"/>
<path d="M51.4553 146H44.1826V153.273H51.4553V146Z" fill="black"/>
<path d="M66.0003 146H58.7275V153.273H66.0003V146Z" fill="black"/>
<path d="M87.8186 146H80.5459V153.273H87.8186V146Z" fill="black"/>
<path d="M116.909 146H109.637V153.273H116.909V146Z" fill="black"/>
<path d="M124.182 146H116.909V153.273H124.182V146Z" fill="black"/>
<path d="M131.455 146H124.183V153.273H131.455V146Z" fill="black"/>
<path d="M138.728 146H131.455V153.273H138.728V146Z" fill="black"/>
<path d="M153.273 146H146V153.273H153.273V146Z" fill="black"/>
<path d="M160.546 146H153.273V153.273H160.546V146Z" fill="black"/>
<path d="M167.819 146H160.546V153.273H167.819V146Z" fill="black"/>
<path d="M175.091 146H167.818V153.273H175.091V146Z" fill="black"/>
<path d="M182.365 146H175.092V153.273H182.365V146Z" fill="black"/>
<path d="M196.909 146H189.637V153.273H196.909V146Z" fill="black"/>
<path d="M204.182 146H196.909V153.273H204.182V146Z" fill="black"/>
<path d="M66.0003 153.273H58.7275V160.545H66.0003V153.273Z" fill="black"/>
<path d="M73.2727 153.273H66V160.545H73.2727V153.273Z" fill="black"/>
<path d="M87.8186 153.273H80.5459V160.545H87.8186V153.273Z" fill="black"/>
<path d="M102.365 153.273H95.0918V160.545H102.365V153.273Z" fill="black"/>
<path d="M109.637 153.273H102.364V160.545H109.637V153.273Z" fill="black"/>
<path d="M116.909 153.273H109.637V160.545H116.909V153.273Z" fill="black"/>
<path d="M124.182 153.273H116.909V160.545H124.182V153.273Z" fill="black"/>
<path d="M138.728 153.273H131.455V160.545H138.728V153.273Z" fill="black"/>
<path d="M153.273 153.273H146V160.545H153.273V153.273Z" fill="black"/>
<path d="M182.365 153.273H175.092V160.545H182.365V153.273Z" fill="black"/>
<path d="M196.909 153.273H189.637V160.545H196.909V153.273Z" fill="black"/>
<path d="M211.455 153.273H204.183V160.545H211.455V153.273Z" fill="black"/>
<path d="M66.0003 160.545H58.7275V167.818H66.0003V160.545Z" fill="black"/>
<path d="M80.5462 160.545H73.2734V167.818H80.5462V160.545Z" fill="black"/>
<path d="M87.8186 160.545H80.5459V167.818H87.8186V160.545Z" fill="black"/>
<path d="M95.0911 160.545H87.8184V167.818H95.0911V160.545Z" fill="black"/>
<path d="M109.637 160.545H102.364V167.818H109.637V160.545Z" fill="black"/>
<path d="M116.909 160.545H109.637V167.818H116.909V160.545Z" fill="black"/>
<path d="M146 160.545H138.728V167.818H146V160.545Z" fill="black"/>
<path d="M153.273 160.545H146V167.818H153.273V160.545Z" fill="black"/>
<path d="M167.819 160.545H160.546V167.818H167.819V160.545Z" fill="black"/>
<path d="M182.365 160.545H175.092V167.818H182.365V160.545Z" fill="black"/>
<path d="M204.182 160.545H196.909V167.818H204.182V160.545Z" fill="black"/>
<path d="M211.455 160.545H204.183V167.818H211.455V160.545Z" fill="black"/>
<path d="M66.0003 167.818H58.7275V175.091H66.0003V167.818Z" fill="black"/>
<path d="M73.2727 167.818H66V175.091H73.2727V167.818Z" fill="black"/>
<path d="M87.8186 167.818H80.5459V175.091H87.8186V167.818Z" fill="black"/>
<path d="M116.909 167.818H109.637V175.091H116.909V167.818Z" fill="black"/>
<path d="M131.455 167.818H124.183V175.091H131.455V167.818Z" fill="black"/>
<path d="M146 167.818H138.728V175.091H146V167.818Z" fill="black"/>
<path d="M153.273 167.818H146V175.091H153.273V167.818Z" fill="black"/>
<path d="M182.365 167.818H175.092V175.091H182.365V167.818Z" fill="black"/>
<path d="M189.637 167.818H182.364V175.091H189.637V167.818Z" fill="black"/>
<path d="M211.455 167.818H204.183V175.091H211.455V167.818Z" fill="black"/>
<path d="M66.0003 175.091H58.7275V182.364H66.0003V175.091Z" fill="black"/>
<path d="M80.5462 175.091H73.2734V182.364H80.5462V175.091Z" fill="black"/>
<path d="M87.8186 175.091H80.5459V182.364H87.8186V175.091Z" fill="black"/>
<path d="M95.0911 175.091H87.8184V182.364H95.0911V175.091Z" fill="black"/>
<path d="M102.365 175.091H95.0918V182.364H102.365V175.091Z" fill="black"/>
<path d="M109.637 175.091H102.364V182.364H109.637V175.091Z" fill="black"/>
<path d="M116.909 175.091H109.637V182.364H116.909V175.091Z" fill="black"/>
<path d="M131.455 175.091H124.183V182.364H131.455V175.091Z" fill="black"/>
<path d="M138.728 175.091H131.455V182.364H138.728V175.091Z" fill="black"/>
<path d="M146 175.091H138.728V182.364H146V175.091Z" fill="black"/>
<path d="M153.273 175.091H146V182.364H153.273V175.091Z" fill="black"/>
<path d="M160.546 175.091H153.273V182.364H160.546V175.091Z" fill="black"/>
<path d="M167.819 175.091H160.546V182.364H167.819V175.091Z" fill="black"/>
<path d="M175.091 175.091H167.818V182.364H175.091V175.091Z" fill="black"/>
<path d="M182.365 175.091H175.092V182.364H182.365V175.091Z" fill="black"/>
<path d="M204.182 175.091H196.909V182.364H204.182V175.091Z" fill="black"/>
<path d="M87.8186 182.364H80.5459V189.636H87.8186V182.364Z" fill="black"/>
<path d="M95.0911 182.364H87.8184V189.636H95.0911V182.364Z" fill="black"/>
<path d="M109.637 182.364H102.364V189.636H109.637V182.364Z" fill="black"/>
<path d="M124.182 182.364H116.909V189.636H124.182V182.364Z" fill="black"/>
<path d="M131.455 182.364H124.183V189.636H131.455V182.364Z" fill="black"/>
<path d="M175.091 182.364H167.818V189.636H175.091V182.364Z" fill="black"/>
<path d="M204.182 182.364H196.909V189.636H204.182V182.364Z" fill="black"/>
<path d="M73.2727 189.636H66V196.909H73.2727V189.636Z" fill="black"/>
<path d="M80.5462 189.636H73.2734V196.909H80.5462V189.636Z" fill="black"/>
<path d="M102.365 189.636H95.0918V196.909H102.365V189.636Z" fill="black"/>
<path d="M124.182 189.636H116.909V196.909H124.182V189.636Z" fill="black"/>
<path d="M131.455 189.636H124.183V196.909H131.455V189.636Z" fill="black"/>
<path d="M138.728 189.636H131.455V196.909H138.728V189.636Z" fill="black"/>
<path d="M146 189.636H138.728V196.909H146V189.636Z" fill="black"/>
<path d="M153.273 189.636H146V196.909H153.273V189.636Z" fill="black"/>
<path d="M160.546 189.636H153.273V196.909H160.546V189.636Z" fill="black"/>
<path d="M189.637 189.636H182.364V196.909H189.637V189.636Z" fill="black"/>
<path d="M196.909 189.636H189.637V196.909H196.909V189.636Z" fill="black"/>
<path d="M204.182 189.636H196.909V196.909H204.182V189.636Z" fill="black"/>
<path d="M211.455 189.636H204.183V196.909H211.455V189.636Z" fill="black"/>
<path d="M73.2727 196.909H66V204.182H73.2727V196.909Z" fill="black"/>
<path d="M80.5462 196.909H73.2734V204.182H80.5462V196.909Z" fill="black"/>
<path d="M87.8186 196.909H80.5459V204.182H87.8186V196.909Z" fill="black"/>
<path d="M102.365 196.909H95.0918V204.182H102.365V196.909Z" fill="black"/>
<path d="M109.637 196.909H102.364V204.182H109.637V196.909Z" fill="black"/>
<path d="M116.909 196.909H109.637V204.182H116.909V196.909Z" fill="black"/>
<path d="M124.182 196.909H116.909V204.182H124.182V196.909Z" fill="black"/>
<path d="M138.728 196.909H131.455V204.182H138.728V196.909Z" fill="black"/>
<path d="M153.273 196.909H146V204.182H153.273V196.909Z" fill="black"/>
<path d="M160.546 196.909H153.273V204.182H160.546V196.909Z" fill="black"/>
<path d="M167.819 196.909H160.546V204.182H167.819V196.909Z" fill="black"/>
<path d="M175.091 196.909H167.818V204.182H175.091V196.909Z" fill="black"/>
<path d="M189.637 196.909H182.364V204.182H189.637V196.909Z" fill="black"/>
<path d="M204.182 196.909H196.909V204.182H204.182V196.909Z" fill="black"/>
<path d="M211.455 196.909H204.183V204.182H211.455V196.909Z" fill="black"/>
<path d="M80.5462 204.182H73.2734V211.454H80.5462V204.182Z" fill="black"/>
<path d="M109.637 204.182H102.364V211.454H109.637V204.182Z" fill="black"/>
<path d="M116.909 204.182H109.637V211.454H116.909V204.182Z" fill="black"/>
<path d="M124.182 204.182H116.909V211.454H124.182V204.182Z" fill="black"/>
<path d="M131.455 204.182H124.183V211.454H131.455V204.182Z" fill="black"/>
<path d="M153.273 204.182H146V211.454H153.273V204.182Z" fill="black"/>
<path d="M167.819 204.182H160.546V211.454H167.819V204.182Z" fill="black"/>
<path d="M182.365 204.182H175.092V211.454H182.365V204.182Z" fill="black"/>
<path d="M189.637 204.182H182.364V211.454H189.637V204.182Z" fill="black"/>
<path d="M204.182 204.182H196.909V211.454H204.182V204.182Z" fill="black"/>
<path d="M43.8186 0.54541H8.18226H0.545898V8.18177V43.8181V51.4545H8.18226H43.8186H51.455V43.8181V8.18177V0.54541H43.8186ZM43.8186 43.8181H8.18226V8.18177H43.8186V43.8181Z" fill="black"/>
<path d="M203.819 0.54541H168.182H160.546V8.18177V43.8181V51.4545H168.182H203.819H211.455V43.8181V8.18177V0.54541H203.819ZM203.819 43.8181H168.182V8.18177H203.819V43.8181Z" fill="black"/>
<path d="M43.8186 160.545H8.18226H0.545898V168.182V203.818V211.454H8.18226H43.8186H51.455V203.818V168.182V160.545H43.8186ZM43.8186 203.818H8.18226V168.182H43.8186V203.818Z" fill="black"/>
<path d="M36.91 15.0908H15.0918V36.909H36.91V15.0908Z" fill="black"/>
<path d="M196.91 15.0908H175.092V36.909H196.91V15.0908Z" fill="black"/>
<path d="M36.91 175.091H15.0918V196.909H36.91V175.091Z" fill="black"/>
<g clip-path="url(#clip0_3157_2273)">
<path d="M73.2734 106C73.2734 87.9244 87.9263 73.2721 106.001 73.2721C124.076 73.2721 138.728 87.9244 138.728 106C138.728 124.074 124.076 138.727 106.001 138.727C87.9263 138.727 73.2734 124.074 73.2734 106Z" fill="#BDFF00"/>
<path d="M97.9109 111.09L97.2823 120.024C98.1816 120.024 98.5712 119.634 99.0382 119.165L103.255 115.093L111.992 121.559C113.594 122.461 114.723 121.986 115.155 120.069L120.89 92.9142L120.892 92.9126C121.4 90.519 120.035 89.5831 118.474 90.1702L84.7642 103.212C82.4635 104.114 82.4984 105.41 84.3731 105.997L92.9914 108.706L113.01 96.0486C113.952 95.4182 114.809 95.767 114.104 96.3974L97.9109 111.09Z" fill="black"/>
</symbol>
</g>
<defs>
<clipPath id="clip0_3157_2273">
<rect width="65.4545" height="65.4545" fill="white" transform="translate(73.2734 73.2727)"/>
</clipPath>
</defs>
</svg>

